<svg width="1440" height="647" viewBox="0 0 1440 647" fill="none" xmlns="http://www.w3.org/2000/svg">
<g clip-path="url(#clip0_3_11)" filter="url(#filter0_d_3_11)">
<rect width="1440" height="639" fill="#00090F"/>
<g filter="url(#filter1_f_3_11)">
<path d="M-135.265 161.324C-67.5007 88.5769 201.372 228.889 274.119 296.654C346.867 364.418 350.906 478.326 283.141 551.073C215.376 623.82 101.469 627.86 28.7218 560.095C-44.0254 492.33 -203.03 234.071 -135.265 161.324Z" fill="url(#paint0_angular_3_11)"/>
</g>
<g filter="url(#filter2_f_3_11)">
<path d="M228.655 -20.88C266.589 21.7122 172.083 167.798 129.491 205.732C86.8984 243.665 21.6191 239.889 -16.3147 197.297C-54.2486 154.705 -50.4722 89.4253 -7.87998 51.4915C34.7122 13.5576 190.721 -63.4722 228.655 -20.88Z" fill="#2ADACC"/>
</g>
<g filter="url(#filter3_f_3_11)">
<path d="M242.248 -94.8113C263.51 -70.938 201.097 28.387 177.224 49.6492C153.35 70.9115 116.761 68.7948 95.4987 44.9215C74.2364 21.0483 76.3531 -15.5413 100.226 -36.8035C144.794 -65.7183 220.986 -118.685 242.248 -94.8113Z" fill="#00FFBB"/>
</g>
<g filter="url(#filter4_f_3_11)">
<path d="M1518.05 428.56C1568.01 484.65 1443.55 677.031 1387.46 726.986C1331.37 776.942 1245.41 771.968 1195.45 715.878C1145.5 659.788 1150.47 573.822 1206.56 523.866C1262.65 473.911 1468.1 372.47 1518.05 428.56Z" fill="url(#paint1_angular_3_11)"/>
</g>
<g filter="url(#filter5_f_3_11)">
<path d="M1428.25 339.189C1449.51 363.062 1387.1 462.387 1363.22 483.649C1339.35 504.911 1302.76 502.795 1281.5 478.922C1260.24 455.048 1262.35 418.459 1286.23 397.196C1330.79 368.282 1406.99 315.315 1428.25 339.189Z" fill="#3ABFFF"/>
</g>
</g>
<defs>
<filter id="filter0_d_3_11" x="-4" y="0" width="1448" height="647" filterUnits="userSpaceOnUse" color-interpolation-filters="sRGB">
<feFlood flood-opacity="0" result="BackgroundImageFix"/>
<feColorMatrix in="SourceAlpha" type="matrix" values="0 0 0 0 0 0 0 0 0 0 0 0 0 0 0 0 0 0 127 0" result="hardAlpha"/>
<feOffset dy="4"/>
<feGaussianBlur stdDeviation="2"/>
<feComposite in2="hardAlpha" operator="out"/>
<feColorMatrix type="matrix" values="0 0 0 0 0 0 0 0 0 0 0 0 0 0 0 0 0 0 0.25 0"/>
<feBlend mode="normal" in2="BackgroundImageFix" result="effect1_dropShadow_3_11"/>
<feBlend mode="normal" in="SourceGraphic" in2="effect1_dropShadow_3_11" result="shape"/>
</filter>
<filter id="filter1_f_3_11" x="-751.703" y="-459.047" width="1683.14" height="1667.44" filterUnits="userSpaceOnUse" color-interpolation-filters="sRGB">
<feFlood flood-opacity="0" result="BackgroundImageFix"/>
<feBlend mode="normal" in="SourceGraphic" in2="BackgroundImageFix" result="shape"/>
<feGaussianBlur stdDeviation="300" result="effect1_foregroundBlur_3_11"/>
</filter>
<filter id="filter2_f_3_11" x="-292.468" y="-283.361" width="779.915" height="765.245" filterUnits="userSpaceOnUse" color-interpolation-filters="sRGB">
<feFlood flood-opacity="0" result="BackgroundImageFix"/>
<feBlend mode="normal" in="SourceGraphic" in2="BackgroundImageFix" result="shape"/>
<feGaussianBlur stdDeviation="125" result="effect1_foregroundBlur_3_11"/>
</filter>
<filter id="filter3_f_3_11" x="-69.1605" y="-250.826" width="465.754" height="465.134" filterUnits="userSpaceOnUse" color-interpolation-filters="sRGB">
<feFlood flood-opacity="0" result="BackgroundImageFix"/>
<feBlend mode="normal" in="SourceGraphic" in2="BackgroundImageFix" result="shape"/>
<feGaussianBlur stdDeviation="75" result="effect1_foregroundBlur_3_11"/>
</filter>
<filter id="filter4_f_3_11" x="761.011" y="12.1241" width="1168.62" height="1149.3" filterUnits="userSpaceOnUse" color-interpolation-filters="sRGB">
<feFlood flood-opacity="0" result="BackgroundImageFix"/>
<feBlend mode="normal" in="SourceGraphic" in2="BackgroundImageFix" result="shape"/>
<feGaussianBlur stdDeviation="200" result="effect1_foregroundBlur_3_11"/>
</filter>
<filter id="filter5_f_3_11" x="1116.84" y="183.174" width="465.754" height="465.134" filterUnits="userSpaceOnUse" color-interpolation-filters="sRGB">
<feFlood flood-opacity="0" result="BackgroundImageFix"/>
<feBlend mode="normal" in="SourceGraphic" in2="BackgroundImageFix" result="shape"/>
<feGaussianBlur stdDeviation="75" result="effect1_foregroundBlur_3_11"/>
</filter>
<radialGradient id="paint0_angular_3_11" cx="0" cy="0" r="1" gradientUnits="userSpaceOnUse" gradientTransform="translate(73.9379 356.199) rotate(-20.9843) scale(288.174 457.688)">
<stop stop-color="#6972CD"/>
<stop offset="1" stop-color="#FF00FF"/>
</radialGradient>
<radialGradient id="paint1_angular_3_11" cx="0" cy="0" r="1" gradientUnits="userSpaceOnUse" gradientTransform="translate(1356.75 572.219) rotate(-7.35603) scale(154.014 124.586)">
<stop stop-color="#2ADACC"/>
<stop offset="0.475611" stop-color="#6972CD"/>
<stop offset="1" stop-color="#3ABFFF"/>
</radialGradient>
<clipPath id="clip0_3_11">
<rect width="1440" height="639" fill="white"/>
</clipPath>
</defs>
</svg>
