<svg width="40" height="40" viewBox="0 0 40 40" fill="none" xmlns="http://www.w3.org/2000/svg">
<g filter="url(#filter0_d_208_30)">
<circle cx="20" cy="16" r="16" fill="#56E2D6" fill-opacity="0.2"/>
<path d="M28.1234 11.0035C27.932 10.6195 27.5972 10.3263 27.1911 10.1876C26.7852 10.049 26.341 10.0759 25.9548 10.2625L17.378 14.4949C17.2936 13.548 17.1045 12.6134 16.8141 11.7083C16.5733 11.0637 16.1669 10.494 15.6359 10.0565C15.1867 9.63321 14.5612 9.45144 13.9551 9.56867C12.7372 9.90473 12.8708 10.8229 13.1817 12.2902H13.1819C13.3342 13.0586 13.3781 13.8444 13.312 14.625C13.2861 14.9613 13.194 15.2893 13.0407 15.5901C12.7029 16.2544 12.4059 16.9386 12.1518 17.6392C11.9121 18.3269 11.9577 19.0818 12.2784 19.7355L14.5012 24.228H14.501C14.8706 24.9828 15.5253 25.5594 16.3207 25.8307C17.1161 26.102 17.9868 26.0455 18.7404 25.6736L25.9689 22.0955C26.3443 21.9112 26.6312 21.5855 26.7668 21.1896C26.9024 20.7941 26.8755 20.3607 26.6917 19.9848C26.519 19.6364 26.2225 19.3646 25.8605 19.2222C26.0455 18.9872 26.1602 18.7049 26.1915 18.4076C26.2227 18.1102 26.1695 17.8101 26.0377 17.5416C25.8564 17.1723 25.537 16.8895 25.1485 16.7538C25.2264 16.6419 25.2895 16.5204 25.3363 16.3923C25.4682 16.0083 25.4397 15.5875 25.2569 15.225C25.1238 14.9502 24.9093 14.7231 24.6425 14.5743L27.3749 13.1903C27.7551 12.9951 28.0437 12.6588 28.1789 12.2534C28.314 11.848 28.2848 11.4058 28.0977 11.0216L28.1234 11.0035ZM27.5702 12.0263C27.4875 12.2671 27.3136 12.4655 27.0859 12.5794L21.8635 15.1709C21.7833 15.2097 21.7223 15.279 21.6938 15.3632C21.6653 15.4474 21.6716 15.5394 21.7115 15.6189C21.7513 15.6993 21.8211 15.7603 21.9058 15.7888C21.9908 15.8173 22.0833 15.8107 22.1632 15.7706L23.5004 15.1093H23.5007C23.811 14.9551 24.1839 15.0032 24.4449 15.2311C24.706 15.459 24.8041 15.8218 24.6934 16.1503C24.6213 16.3669 24.4648 16.5453 24.2596 16.6454L23.9197 16.8116L22.9259 17.3032C22.7593 17.3851 22.6905 17.5866 22.7724 17.7532C22.8543 17.9199 23.0558 17.9887 23.2224 17.9067L24.22 17.4116C24.4356 17.3072 24.6834 17.2918 24.9103 17.3682C25.1382 17.4436 25.3257 17.6077 25.4306 17.8235C25.6527 18.2728 25.4702 18.8171 25.0222 19.0417L24.0284 19.5334V19.5331C23.9399 19.5669 23.8696 19.6362 23.835 19.7244C23.8003 19.8127 23.8045 19.9113 23.8464 19.9962C23.8882 20.0812 23.9641 20.1445 24.0554 20.1704C24.1464 20.1966 24.2442 20.183 24.3246 20.1331L24.8775 19.8621H24.8778C25.0918 19.7557 25.3396 19.7391 25.566 19.8157C25.7924 19.8923 25.9792 20.056 26.0849 20.2705C26.194 20.4846 26.2109 20.7339 26.1318 20.9608C26.0559 21.1882 25.8917 21.3757 25.6764 21.4811L18.448 25.0555V25.0558C17.8555 25.3488 17.171 25.3944 16.5448 25.1829C15.9186 24.9716 15.402 24.5203 15.1085 23.9281L12.8822 19.4356C12.6406 18.9455 12.6066 18.3787 12.7881 17.8634C13.0302 17.1893 13.315 16.5315 13.641 15.8937C13.8412 15.5158 13.9642 15.1016 14.0025 14.6757C14.0721 13.8297 14.0222 12.9778 13.8543 12.1456C13.4928 10.4721 13.634 10.3385 14.1508 10.2119V10.2122C14.211 10.1973 14.2728 10.19 14.3351 10.1905C14.6636 10.2212 14.9732 10.3581 15.217 10.5807C15.6476 10.9445 15.9766 11.4142 16.1709 11.9434C16.4735 12.9505 16.6638 13.988 16.7384 15.037C16.7462 15.1492 16.81 15.2498 16.9083 15.3045C17.0062 15.3585 17.1249 15.3585 17.2227 15.3045L26.2332 10.8664C26.4616 10.7527 26.7258 10.735 26.9676 10.8172C27.2091 10.8994 27.4077 11.0744 27.5197 11.3035C27.6306 11.5287 27.6488 11.7881 27.5704 12.0263L27.5702 12.0263Z" fill="#2ADACC"/>
<path d="M17.8737 8.96528C17.9395 9.03234 18.029 9.07142 18.123 9.07369C18.2077 9.07369 18.2891 9.04142 18.3506 8.98318C18.4807 8.85234 18.4807 8.64082 18.3506 8.50972L17.3026 7.37853C17.1736 7.26004 16.9752 7.26055 16.8468 7.37954C16.7183 7.49854 16.7026 7.69644 16.811 7.83409L17.8737 8.96528Z" fill="#2ADACC"/>
<path d="M20.7431 8.22443C20.9234 8.22468 21.0716 8.08274 21.0794 7.90273L21.1372 6.36313C21.1442 6.27212 21.1137 6.18212 21.0532 6.11404C20.9925 6.04597 20.9067 6.00539 20.8155 6.0016C20.724 5.99253 20.633 6.02228 20.5644 6.08328C20.4956 6.1443 20.4557 6.23153 20.4542 6.3233L20.3927 7.8629C20.3854 7.95895 20.4194 8.05349 20.4865 8.12257C20.5535 8.1919 20.6471 8.22871 20.7431 8.22442L20.7431 8.22443Z" fill="#2ADACC"/>
<path d="M23.2661 9.58302C23.3498 9.5815 23.4302 9.55075 23.4937 9.49629L24.6249 8.44829C24.7608 8.32148 24.7681 8.10869 24.6413 7.97306C24.5145 7.83717 24.3017 7.82986 24.1661 7.95667L23.0384 9.00119C22.967 9.06245 22.9244 9.15044 22.9201 9.24422C22.9161 9.338 22.9511 9.42927 23.0167 9.49632C23.0857 9.55582 23.175 9.58658 23.266 9.58305L23.2661 9.58302Z" fill="#2ADACC"/>
</g>
<defs>
<filter id="filter0_d_208_30" x="0" y="0" width="40" height="40" filterUnits="userSpaceOnUse" color-interpolation-filters="sRGB">
<feFlood flood-opacity="0" result="BackgroundImageFix"/>
<feColorMatrix in="SourceAlpha" type="matrix" values="0 0 0 0 0 0 0 0 0 0 0 0 0 0 0 0 0 0 127 0" result="hardAlpha"/>
<feOffset dy="4"/>
<feGaussianBlur stdDeviation="2"/>
<feComposite in2="hardAlpha" operator="out"/>
<feColorMatrix type="matrix" values="0 0 0 0 0 0 0 0 0 0 0 0 0 0 0 0 0 0 0.25 0"/>
<feBlend mode="normal" in2="BackgroundImageFix" result="effect1_dropShadow_208_30"/>
<feBlend mode="normal" in="SourceGraphic" in2="effect1_dropShadow_208_30" result="shape"/>
</filter>
</defs>
</svg>
