<svg width="321" height="385" viewBox="0 0 321 385" fill="none" xmlns="http://www.w3.org/2000/svg">
<path d="M130.303 288.31C130.551 279.428 124.131 272.768 115.964 273.434C107.797 274.1 100.975 281.84 100.727 290.722C100.479 299.604 106.899 306.264 115.066 305.598C123.233 304.932 130.055 297.192 130.303 288.31Z" fill="url(#paint0_linear_204_24)"/>
<path d="M130.15 283.742C131.694 291.897 126.309 300.691 118.135 303.378C109.949 306.086 102.059 301.641 100.515 293.485C100.052 291.037 100.206 288.535 100.887 286.158C102.443 280.61 106.811 275.729 112.531 273.849C118.665 271.832 124.629 273.813 127.879 278.376C128.984 279.901 129.764 281.699 130.15 283.742Z" fill="url(#paint1_linear_204_24)"/>
<path d="M127.668 284.558C127.706 284.761 127.744 284.964 127.768 285.171L127.774 285.202C128.679 291.812 124.261 298.748 117.669 300.915C111.061 303.088 104.704 299.695 103.148 293.299L103.142 293.268C103.089 293.07 103.051 292.867 103.013 292.664C101.729 285.881 106.197 278.548 113.011 276.307C119.814 274.087 126.384 277.775 127.668 284.558Z" fill="url(#paint2_linear_204_24)"/>
<path opacity="0.5" fill-rule="evenodd" clip-rule="evenodd" d="M127.52 278.157C125.964 282.531 121.477 286.674 115.72 288.552C109.438 290.6 103.548 289.337 100.837 285.785C102.361 280.35 106.679 275.563 112.333 273.719C118.397 271.742 124.292 273.686 127.52 278.157Z" fill="url(#paint3_linear_204_24)"/>
<path d="M127.757 285.207L127.763 285.238C128.667 291.838 124.254 298.762 117.67 300.926C111.071 303.095 104.722 299.708 103.168 293.322L103.162 293.291C103.023 292.228 103.012 291.173 103.125 290.111C103.728 284.603 107.718 279.422 113.255 277.602C119.101 275.681 124.771 278.134 127.058 283.171C127.35 283.803 127.589 284.485 127.757 285.207Z" fill="#557086"/>
<path opacity="0.2" fill-rule="evenodd" clip-rule="evenodd" d="M126.788 283C124.67 286.389 120.861 289.371 116.214 290.887C111.069 292.565 106.186 292.028 103.095 289.818C103.693 284.405 107.643 279.313 113.123 277.525C118.911 275.638 124.524 278.049 126.788 283Z" fill="url(#paint4_linear_204_24)"/>
<path d="M125.436 285.41C124.196 279.518 118.635 276.372 113.038 278.428C107.573 280.441 104.143 286.725 105.36 292.493C106.261 296.756 109.434 299.576 113.244 300.031C113.62 299.194 113.81 297.872 113.89 297.132C113.994 296.518 114.115 295.914 114.24 295.326C115.331 295.365 116.639 294.554 117.231 293.447L117.255 293.406C116.258 293.287 115.057 293.914 114.355 294.857C114.518 294.14 114.702 293.45 114.906 292.786C115.992 292.877 117.329 292.138 117.956 291.053L117.98 291.012C117.022 290.847 115.806 291.396 115.063 292.287C115.27 291.638 115.495 291.001 115.741 290.389C116.841 290.392 118.137 289.518 118.691 288.375L118.714 288.334C117.792 288.272 116.721 288.84 116.046 289.675C116.067 289.619 116.09 289.578 116.111 289.521C116.265 289.172 116.422 288.839 116.579 288.505C117.735 287.727 118.582 286.056 118.5 284.624L118.488 284.562C117.266 285.245 116.334 286.961 116.363 288.444C116.203 288.762 116.061 289.09 115.919 289.419C116.073 288.406 115.804 287.318 115.186 286.708L115.162 286.749C114.644 287.915 114.812 289.468 115.552 290.302C115.315 290.877 115.113 291.474 114.9 292.091C114.898 290.998 114.345 289.903 113.537 289.456L113.531 289.507C113.277 290.735 113.809 292.135 114.708 292.735C114.515 293.379 114.341 294.033 114.184 294.698C114.143 293.568 113.536 292.44 112.685 292.008L112.679 292.059C112.48 293.335 113.095 294.758 114.047 295.307C113.944 295.755 113.861 296.23 113.775 296.689C113.722 296.657 113.671 296.641 113.609 296.644C113.39 296.65 113.071 296.623 112.725 296.537C112.491 296.465 112.248 296.429 111.997 296.428C111.036 296.413 111.08 295.901 110.418 295.141C110.376 295.088 109.915 294.809 109.826 294.755C109.808 294.744 109.542 294.666 109.359 294.444C109.208 294.229 109.09 294.019 109.034 293.805C108.948 293.518 108.791 293.354 108.49 293.337C107.067 293.291 107.31 291.255 107.31 291.006C107.316 290.789 107.053 290.394 106.946 290.164C106.94 290.133 106.92 290.106 106.911 290.06C106.731 289.605 106.858 289.115 106.988 288.89C107.118 288.665 107.612 288.204 107.701 288.009C107.79 287.814 107.843 287.598 107.935 287.418C108.059 287.162 108.456 286.6 109.024 286.032C109.367 285.687 109.332 285.085 109.448 284.865C109.643 284.486 110.027 284.359 110.27 283.981C110.391 283.792 110.587 283.661 110.69 283.461C111.22 282.525 112.055 281.952 112.892 281.477C113.463 281.174 114.161 281.126 114.803 281.031C114.895 281.018 114.989 281.02 115.081 281.006C116.48 280.596 118.211 280.358 118.936 280.783C119.379 281.052 119.651 281.41 119.796 281.677C119.962 281.971 120.154 282.24 120.385 282.462L120.876 282.981C121.189 283.309 121.355 283.768 121.34 284.27C121.331 284.555 121.354 284.846 121.455 284.962C121.617 285.157 122.046 285.431 122.298 285.597C122.422 285.672 122.558 285.727 122.691 285.766C123.008 285.861 123.626 286.055 123.632 286.087C123.64 286.133 123.717 286.291 123.525 286.603C123.33 286.899 122.936 287.393 122.936 287.393C122.936 287.393 122.995 287.539 123.078 287.645C123.161 287.75 123.359 287.884 123.347 288.07C123.335 288.257 123.022 288.509 123.161 288.662C123.285 288.82 123.533 288.805 123.507 288.996C123.48 289.187 123.196 289.596 123.249 289.711C123.302 289.826 123.793 290.925 123.228 291.343C122.799 291.65 121.53 292.166 120.944 292.392C120.695 292.491 120.488 292.724 120.399 293.002C120.346 293.219 120.302 293.482 120.307 293.845C120.348 294.727 119.928 296.905 119.928 296.905C119.928 296.905 119.907 296.961 119.892 297.049C119.851 297.245 119.815 297.555 119.851 297.659C119.88 297.733 119.996 297.844 120.158 297.956C120.288 298.063 120.475 298.051 120.626 297.935C124.327 295.159 126.423 290.126 125.436 285.41Z" fill="#15ADA5"/>
<path d="M125.368 284.763C124.155 278.916 118.593 275.842 112.966 277.942C107.472 279.996 103.997 286.278 105.187 292.001C106.068 296.231 109.237 299.004 113.057 299.419C113.439 298.584 113.636 297.267 113.72 296.531C113.828 295.919 113.953 295.318 114.081 294.732C115.176 294.76 116.492 293.94 117.092 292.834L117.116 292.793C116.117 292.684 114.908 293.319 114.199 294.264C114.367 293.55 114.555 292.862 114.763 292.199C115.852 292.279 117.198 291.532 117.833 290.447L117.857 290.406C116.896 290.25 115.673 290.808 114.923 291.701C115.135 291.055 115.364 290.418 115.614 289.808C116.718 289.8 118.023 288.919 118.584 287.776L118.608 287.735C117.683 287.683 116.605 288.258 115.923 289.095C115.945 289.039 115.968 288.998 115.99 288.941C116.146 288.593 116.305 288.26 116.464 287.927C117.629 287.142 118.488 285.472 118.413 284.049L118.401 283.987C117.171 284.678 116.227 286.394 116.248 287.868C116.086 288.185 115.942 288.513 115.797 288.841C115.957 287.833 115.693 286.753 115.077 286.154L115.053 286.195C114.527 287.358 114.687 288.901 115.424 289.723C115.183 290.298 114.978 290.893 114.761 291.509C114.764 290.422 114.215 289.338 113.408 288.901L113.402 288.953C113.139 290.176 113.666 291.563 114.565 292.151C114.368 292.792 114.189 293.445 114.028 294.108C113.993 292.984 113.391 291.869 112.538 291.447L112.532 291.498C112.326 292.769 112.935 294.177 113.888 294.714C113.782 295.161 113.696 295.634 113.607 296.092C113.554 296.06 113.504 296.044 113.441 296.049C113.222 296.056 112.901 296.032 112.554 295.951C112.32 295.881 112.077 295.847 111.825 295.85C110.86 295.844 110.908 295.334 110.247 294.584C110.206 294.532 109.744 294.259 109.656 294.207C109.638 294.196 109.371 294.121 109.189 293.902C109.038 293.689 108.921 293.482 108.866 293.27C108.781 292.986 108.625 292.824 108.322 292.81C106.895 292.778 107.15 290.751 107.151 290.504C107.158 290.287 106.896 289.898 106.791 289.67C106.785 289.639 106.764 289.613 106.756 289.566C106.577 289.116 106.708 288.628 106.84 288.403C106.971 288.178 107.47 287.715 107.56 287.52C107.65 287.325 107.705 287.109 107.798 286.93C107.924 286.674 108.325 286.112 108.898 285.541C109.244 285.195 109.212 284.597 109.329 284.376C109.527 283.997 109.913 283.868 110.159 283.489C110.282 283.3 110.478 283.169 110.583 282.969C111.12 282.032 111.96 281.454 112.803 280.975C113.377 280.667 114.078 280.613 114.723 280.512C114.815 280.498 114.91 280.499 115.002 280.485C116.408 280.063 118.146 279.81 118.871 280.225C119.314 280.488 119.585 280.842 119.729 281.106C119.894 281.397 120.085 281.662 120.315 281.881L120.805 282.391C121.118 282.714 121.282 283.17 121.264 283.669C121.253 283.953 121.276 284.241 121.376 284.356C121.538 284.549 121.967 284.816 122.218 284.979C122.342 285.052 122.479 285.106 122.612 285.143C122.929 285.234 123.548 285.422 123.554 285.453C123.563 285.499 123.639 285.655 123.444 285.967C123.247 286.264 122.849 286.759 122.849 286.759C122.849 286.759 122.908 286.904 122.99 287.008C123.073 287.112 123.271 287.243 123.258 287.428C123.245 287.614 122.929 287.867 123.067 288.019C123.191 288.175 123.441 288.157 123.413 288.347C123.385 288.537 123.098 288.946 123.15 289.06C123.203 289.174 123.69 290.262 123.12 290.683C122.688 290.992 121.412 291.519 120.823 291.749C120.573 291.849 120.364 292.084 120.274 292.361C120.219 292.577 120.173 292.839 120.177 293.2C120.213 294.076 119.78 296.245 119.78 296.245C119.78 296.245 119.758 296.302 119.743 296.389C119.7 296.585 119.663 296.893 119.698 296.997C119.727 297.069 119.843 297.179 120.005 297.289C120.135 297.394 120.322 297.38 120.474 297.263C124.203 294.467 126.336 289.458 125.368 284.763Z" fill="url(#paint5_linear_204_24)"/>
<path d="M242.067 277.252C246.834 264.041 239.818 248.188 226.395 241.845C212.973 235.502 198.227 241.07 193.46 254.282C188.693 267.494 195.71 283.346 209.132 289.689C222.554 296.032 237.3 290.464 242.067 277.252Z" fill="url(#paint6_linear_204_24)"/>
<path d="M243.816 270.026C242.275 283.378 229.452 291.639 215.198 288.483C200.916 285.346 190.595 271.933 192.136 258.582C192.599 254.574 194.066 251.023 196.305 248.116C201.48 241.302 210.779 237.916 220.754 240.125C231.451 242.494 239.926 250.602 242.842 260.149C243.846 263.356 244.202 266.682 243.816 270.026Z" fill="url(#paint7_linear_204_24)"/>
<path d="M239.486 269.067C239.448 269.399 239.41 269.731 239.346 270.057L239.34 270.108C237.544 280.629 227.16 286.996 215.663 284.45C204.141 281.898 195.734 271.37 196.396 260.598L196.402 260.547C196.414 260.209 196.453 259.878 196.491 259.546C197.773 248.44 208.431 241.531 220.314 244.163C232.168 246.814 240.768 257.961 239.486 269.067Z" fill="url(#paint8_linear_204_24)"/>
<path opacity="0.5" fill-rule="evenodd" clip-rule="evenodd" d="M242.925 259.608C238.3 264.709 229.141 266.939 219.086 264.731C208.111 262.322 199.394 255.372 196.848 247.798C201.947 241.105 211.155 237.781 221.032 239.949C231.623 242.274 240.014 250.232 242.925 259.608Z" fill="url(#paint9_linear_204_24)"/>
<path d="M239.271 270.08L239.265 270.131C237.471 280.636 227.098 286.994 215.615 284.451C204.105 281.904 195.707 271.391 196.368 260.635L196.374 260.584C196.675 258.898 197.172 257.335 197.869 255.869C201.518 248.284 210.369 244.125 220.025 246.263C230.221 248.52 238.001 257.066 239.159 266.473C239.313 267.657 239.358 268.87 239.271 270.08Z" fill="#557086"/>
<path opacity="0.2" fill-rule="evenodd" clip-rule="evenodd" d="M239.181 266.042C234.152 269.206 226.641 270.308 218.524 268.526C209.538 266.553 202.059 261.542 198.247 255.614C201.865 248.155 210.64 244.065 220.212 246.167C230.321 248.387 238.033 256.791 239.181 266.042Z" fill="url(#paint10_linear_204_24)"/>
<path d="M235.531 268.381C236.445 258.626 229.179 249.155 219.314 247.31C209.68 245.516 201.179 251.783 200.288 261.334C199.632 268.395 203.278 275.308 209.087 279.294C210.091 278.39 211.037 276.608 211.525 275.589C211.99 274.775 212.477 273.992 212.961 273.234C214.67 274.242 217.137 274.185 218.614 273.072L218.672 273.032C217.152 271.988 214.944 271.865 213.373 272.644C213.981 271.731 214.609 270.874 215.257 270.074C216.931 271.153 219.409 271.23 220.932 270.178L220.99 270.139C219.554 269.061 217.36 268.811 215.749 269.476C216.394 268.701 217.062 267.958 217.75 267.272C219.49 268.234 221.969 268.076 223.404 266.874L223.461 266.834C222.03 265.941 220.057 265.844 218.581 266.487C218.641 266.421 218.699 266.382 218.759 266.317C219.174 265.937 219.585 265.582 219.996 265.228C222.208 265.089 224.364 263.365 224.933 261.185L224.945 261.083C222.677 261.026 220.363 262.741 219.684 264.949C219.276 265.278 218.891 265.638 218.505 265.998C219.244 264.642 219.35 262.805 218.669 261.37L218.612 261.41C217.222 262.674 216.73 265.107 217.492 266.979C216.837 267.62 216.226 268.323 215.587 269.047C216.117 267.435 215.777 265.341 214.717 263.98L214.683 264.051C213.679 265.637 213.838 268.161 214.968 269.827C214.349 270.607 213.753 271.418 213.179 272.261C213.667 270.56 213.258 268.373 212.121 266.995L212.086 267.066C211.148 268.771 211.427 271.401 212.666 273.038C212.283 273.608 211.92 274.235 211.559 274.837C211.491 274.743 211.419 274.675 211.319 274.626C210.97 274.444 210.477 274.125 209.971 273.699C209.637 273.389 209.27 273.124 208.872 272.905C207.358 272.045 207.679 271.33 207.001 269.634C206.962 269.52 206.368 268.708 206.254 268.551C206.231 268.52 205.847 268.173 205.665 267.687C205.532 267.238 205.447 266.827 205.463 266.463C205.467 265.966 205.299 265.588 204.83 265.301C202.6 263.994 203.98 261.208 204.101 260.842C204.217 260.527 203.993 259.717 203.937 259.286C203.943 259.234 203.923 259.178 203.932 259.101C203.869 258.275 204.309 257.665 204.626 257.446C204.942 257.228 205.949 256.98 206.185 256.77C206.421 256.56 206.611 256.288 206.844 256.104C207.166 255.834 208.068 255.353 209.245 255.011C209.957 254.802 210.195 253.885 210.486 253.661C210.98 253.273 211.651 253.421 212.22 253.075C212.504 252.903 212.877 252.88 213.139 252.676C214.435 251.758 216.036 251.641 217.593 251.672C218.645 251.721 219.774 252.259 220.836 252.678C220.988 252.738 221.137 252.824 221.289 252.883C223.705 253.497 226.56 254.654 227.5 255.91C228.071 256.692 228.327 257.456 228.425 257.976C228.544 258.552 228.717 259.115 228.974 259.643L229.497 260.834C229.833 261.59 229.871 262.41 229.602 263.137C229.449 263.548 229.344 263.997 229.446 264.255C229.608 264.684 230.154 265.46 230.471 265.924C230.631 266.142 230.819 266.342 231.011 266.515C231.465 266.93 232.349 267.755 232.343 267.806C232.334 267.883 232.379 268.181 231.922 268.473C231.468 268.739 230.604 269.124 230.604 269.124C230.604 269.124 230.626 269.391 230.705 269.618C230.785 269.845 231.033 270.215 230.924 270.479C230.814 270.743 230.194 270.841 230.339 271.188C230.458 271.529 230.859 271.722 230.724 271.981C230.588 272.239 229.939 272.593 229.967 272.809C229.995 273.025 230.235 275.069 229.136 275.193C228.307 275.271 226.045 274.927 225.008 274.75C224.566 274.678 224.124 274.842 223.848 275.174C223.657 275.447 223.458 275.796 223.29 276.335C222.925 277.669 221.195 280.509 221.195 280.509C221.195 280.509 221.134 280.574 221.068 280.691C220.907 280.943 220.699 281.369 220.704 281.553C220.715 281.687 220.843 281.951 221.046 282.258C221.2 282.528 221.5 282.673 221.796 282.634C229.012 281.769 234.789 276.183 235.531 268.381Z" fill="#15ADA5"/>
<path d="M235.766 267.635C236.622 257.976 229.261 248.5 219.336 246.552C209.645 244.658 201.143 250.768 200.309 260.224C199.695 267.216 203.403 274.113 209.266 278.134C210.268 277.249 211.208 275.494 211.692 274.491C212.153 273.689 212.638 272.919 213.119 272.174C214.843 273.193 217.321 273.167 218.799 272.08L218.856 272.042C217.323 270.988 215.103 270.841 213.53 271.594C214.135 270.695 214.76 269.854 215.406 269.069C217.095 270.158 219.585 270.264 221.109 269.241L221.167 269.202C219.717 268.116 217.511 267.842 215.897 268.481C216.54 267.722 217.206 266.993 217.893 266.321C219.648 267.296 222.137 267.169 223.571 265.995L223.629 265.956C222.185 265.053 220.202 264.934 218.723 265.553C218.783 265.489 218.841 265.45 218.901 265.386C219.315 265.015 219.726 264.668 220.137 264.322C222.358 264.211 224.514 262.528 225.072 260.374L225.083 260.273C222.803 260.189 220.489 261.861 219.822 264.042C219.414 264.363 219.029 264.715 218.644 265.068C219.377 263.732 219.472 261.912 218.779 260.482L218.721 260.52C217.333 261.757 216.854 264.163 217.632 266.028C216.977 266.655 216.369 267.345 215.731 268.054C216.253 266.463 215.898 264.384 214.825 263.021L214.79 263.091C213.792 264.651 213.968 267.155 215.114 268.82C214.497 269.586 213.903 270.383 213.332 271.211C213.811 269.532 213.386 267.359 212.235 265.978L212.201 266.048C211.269 267.727 211.566 270.338 212.822 271.975C212.44 272.536 212.079 273.153 211.721 273.745C211.652 273.651 211.579 273.583 211.478 273.534C211.126 273.349 210.629 273.027 210.118 272.598C209.78 272.287 209.41 272.02 209.009 271.798C207.482 270.928 207.799 270.223 207.108 268.533C207.067 268.42 206.465 267.607 206.35 267.451C206.326 267.419 205.939 267.071 205.753 266.587C205.616 266.141 205.528 265.731 205.542 265.371C205.543 264.879 205.372 264.502 204.898 264.212C202.649 262.89 204.018 260.144 204.138 259.783C204.252 259.472 204.022 258.667 203.963 258.238C203.968 258.188 203.948 258.131 203.956 258.055C203.887 257.235 204.326 256.636 204.643 256.423C204.959 256.211 205.97 255.977 206.205 255.772C206.441 255.567 206.63 255.299 206.863 255.119C207.185 254.856 208.088 254.39 209.269 254.065C209.983 253.866 210.216 252.96 210.506 252.742C211.001 252.363 211.676 252.518 212.245 252.182C212.53 252.014 212.904 251.997 213.166 251.798C214.463 250.903 216.07 250.806 217.635 250.855C218.693 250.917 219.83 251.464 220.901 251.892C221.054 251.953 221.204 252.04 221.357 252.101C223.788 252.739 226.665 253.92 227.617 255.176C228.196 255.958 228.458 256.718 228.56 257.235C228.683 257.808 228.861 258.367 229.122 258.894L229.656 260.081C229.998 260.834 230.041 261.648 229.775 262.365C229.624 262.771 229.522 263.214 229.626 263.472C229.792 263.899 230.345 264.675 230.666 265.138C230.828 265.357 231.019 265.556 231.213 265.73C231.672 266.148 232.565 266.976 232.56 267.026C232.551 267.102 232.598 267.398 232.141 267.682C231.687 267.941 230.82 268.312 230.82 268.312C230.82 268.312 230.844 268.577 230.926 268.803C231.007 269.029 231.259 269.398 231.15 269.659C231.042 269.919 230.42 270.009 230.568 270.354C230.69 270.694 231.094 270.891 230.959 271.145C230.825 271.399 230.174 271.742 230.204 271.957C230.233 272.171 230.488 274.201 229.385 274.31C228.552 274.378 226.277 274.01 225.233 273.821C224.789 273.745 224.346 273.902 224.071 274.228C223.881 274.495 223.683 274.839 223.518 275.372C223.159 276.69 221.439 279.484 221.439 279.484C221.439 279.484 221.379 279.548 221.313 279.662C221.152 279.911 220.946 280.33 220.953 280.513C220.965 280.646 221.095 280.909 221.301 281.216C221.457 281.485 221.76 281.633 222.057 281.597C229.302 280.827 235.068 275.385 235.766 267.635Z" fill="url(#paint11_linear_204_24)"/>
<path d="M113.254 34.1233C107.273 20.1732 92.7026 14.8725 80.7115 22.2838C68.7204 29.695 63.8489 47.0118 69.8307 60.9619C75.8125 74.912 90.3825 80.2127 102.374 72.8014C114.365 65.3902 119.236 48.0734 113.254 34.1233Z" fill="url(#paint12_linear_204_24)"/>
<path d="M109.351 27.4995C117.393 38.7861 115.555 56.3669 105.26 66.7504C94.9613 77.1742 80.0669 76.4331 72.0244 65.1465C69.6101 61.7584 68.0789 57.8134 67.4202 53.656C65.8358 43.9786 68.9111 33.1622 76.1158 25.8957C83.8417 18.1034 94.1291 16.5551 102.187 21.0385C104.908 22.5223 107.337 24.6725 109.351 27.4995Z" fill="url(#paint13_linear_204_24)"/>
<path d="M106.224 30.6532C106.424 30.9337 106.624 31.2143 106.805 31.5136L106.836 31.5568C112.839 40.969 111.133 54.9657 102.83 63.3403C94.5082 71.7337 82.6415 71.4254 75.8194 62.8394L75.7887 62.7962C75.5701 62.5345 75.3702 62.2539 75.1703 61.9734C68.481 52.5858 69.9816 37.9425 78.5642 29.2863C87.1435 20.6704 99.5346 21.2657 106.224 30.6532Z" fill="url(#paint14_linear_204_24)"/>
<path opacity="0.5" fill-rule="evenodd" clip-rule="evenodd" d="M102.068 20.9681C102.859 28.9731 99.0767 38.8898 91.7621 46.267C83.779 54.3182 74.0157 56.9158 67.3973 53.4939C65.7989 43.8627 68.8657 33.0768 76.0505 25.8307C83.755 18.0604 94.0139 16.5163 102.068 20.9681Z" fill="url(#paint15_linear_204_24)"/>
<path d="M106.79 31.5448L106.821 31.588C112.822 40.9977 111.117 54.9908 102.816 63.3632C94.4962 71.7543 82.6327 71.4461 75.8125 62.8624L75.7817 62.8192C74.8262 61.2986 74.0656 59.6926 73.4847 57.9795C70.5041 49.0829 72.8068 38.0836 79.7864 31.044C87.1568 23.6103 97.3486 23.0089 104.311 28.9645C105.193 29.7073 106.03 30.5683 106.79 31.5448Z" fill="#557086"/>
<path opacity="0.2" fill-rule="evenodd" clip-rule="evenodd" d="M104.209 28.9279C103.449 35.8334 99.8546 43.4166 93.9505 49.3711C87.4151 55.9623 79.6877 58.9104 73.4578 57.87C70.4846 48.9958 72.7816 38.0241 79.744 31.0022C87.0963 23.5871 97.263 22.9872 104.209 28.9279Z" fill="url(#paint16_linear_204_24)"/>
<path d="M103.486 33.676C97.4925 25.6244 86.9945 25.0837 80.1001 32.5195C73.3733 39.7862 72.6822 52.0201 78.5525 59.8991C82.8938 65.722 89.6055 67.596 95.6027 65.3683C95.5744 63.8016 94.9269 61.6354 94.5263 60.4444C94.2486 59.426 94.005 58.4105 93.7768 57.4165C95.4307 56.6387 96.8086 54.3957 96.9124 52.2509L96.9188 52.1701C95.3491 52.7517 94.0003 54.6314 93.619 56.6112C93.3575 55.391 93.1455 54.1952 92.9828 53.0238C94.6643 52.3296 96.1377 50.1757 96.3095 48.0365L96.3159 47.9557C94.7713 48.4378 93.3457 50.2096 92.8655 52.1406C92.7182 50.9908 92.6049 49.8438 92.541 48.7212C94.1828 47.8814 95.4992 45.5521 95.5196 43.38L95.5261 43.2993C94.1077 43.9137 92.9112 45.6028 92.4933 47.3967C92.4845 47.2944 92.4909 47.2137 92.482 47.1114C92.4659 46.4599 92.4651 45.8301 92.4643 45.2002C93.6407 43.1235 93.7266 39.9207 92.5966 37.796L92.5351 37.7096C91.1952 39.6917 91.0129 43.0287 92.0992 45.2717C92.0846 45.88 92.104 46.491 92.1234 47.1021C91.641 45.4371 90.4745 43.9797 89.1251 43.5231L89.1186 43.6038C89.1662 45.7815 90.5091 48.0254 92.1978 48.7335C92.2496 49.7942 92.3693 50.8604 92.4858 51.9671C91.7128 50.2984 90.1189 49.0496 88.601 48.9854L88.6285 49.0689C89.1125 51.1404 90.8902 52.8716 92.6517 53.0981C92.8176 54.2292 93.0175 55.363 93.2514 56.4996C92.395 54.8038 90.6991 53.5466 89.1254 53.5387L89.1529 53.6222C89.7543 55.7237 91.6712 57.4257 93.4764 57.534C93.6375 58.2989 93.8479 59.0883 94.043 59.856C93.941 59.8476 93.8544 59.8608 93.7645 59.9143C93.4423 60.0909 92.9469 60.2938 92.3713 60.4292C91.9722 60.4979 91.5852 60.6285 91.2104 60.821C89.7669 61.5349 89.4731 60.7184 87.9512 60.0647C87.8525 60.0159 86.9685 59.943 86.7985 59.929C86.7645 59.9262 86.3127 60.0108 85.8837 59.8129C85.5073 59.5991 85.1835 59.3692 84.9495 59.0858C84.6201 58.7133 84.2712 58.5829 83.8097 58.7887C81.6571 59.8098 80.5871 56.5117 80.4122 56.1316C80.2681 55.7946 79.5987 55.3941 79.2781 55.1238C79.2474 55.0807 79.198 55.0563 79.1518 54.9915C78.5633 54.4351 78.4087 53.5894 78.4444 53.1454C78.48 52.7014 78.8921 51.6181 78.8873 51.252C78.8825 50.8859 78.8096 50.5142 78.8202 50.1697C78.825 49.6825 79.021 48.5204 79.4679 47.2164C79.7367 46.426 79.2608 45.5335 79.2778 45.1083C79.3021 44.3789 79.7862 43.8906 79.8818 43.1265C79.9296 42.7445 80.1288 42.3952 80.1425 42.0104C80.273 40.1724 81.1133 38.6571 82.0274 37.2901C82.6645 36.3878 83.6716 35.7801 84.5613 35.1424C84.6884 35.0513 84.8309 34.9818 84.958 34.8907C86.7544 33.1902 89.1661 31.4997 90.5448 31.5931C91.3948 31.6632 92.0521 32.0018 92.456 32.2992C92.9094 32.621 93.3846 32.8837 93.8848 33.0468L94.9809 33.4622C95.6787 33.7229 96.2486 34.2981 96.5797 35.0771C96.7667 35.5192 97.0063 35.9452 97.2378 36.0456C97.6175 36.2191 98.4488 36.308 98.9402 36.3688C99.1782 36.3885 99.4195 36.3677 99.6453 36.3254C100.184 36.2276 101.242 36.0507 101.273 36.0939C101.319 36.1587 101.544 36.3397 101.476 36.964C101.394 37.5666 101.155 38.6236 101.155 38.6236C101.155 38.6236 101.346 38.8019 101.544 38.8995C101.741 38.997 102.13 39.0495 102.244 39.3432C102.357 39.637 102.067 40.2632 102.382 40.3907C102.678 40.537 103.038 40.3229 103.133 40.6354C103.227 40.948 103.091 41.79 103.252 41.9251C103.412 42.0602 104.916 43.3626 104.368 44.4347C103.944 45.2327 102.417 46.9961 101.703 47.7905C101.401 48.1313 101.257 48.6476 101.32 49.1404C101.393 49.5121 101.512 49.9485 101.776 50.4985C102.458 51.8143 103.363 55.4644 103.363 55.4644C103.363 55.4644 103.371 55.5667 103.411 55.7122C103.487 56.0435 103.652 56.5447 103.779 56.677C103.874 56.7662 104.124 56.8478 104.446 56.8946C104.714 56.9574 104.984 56.7968 105.127 56.5038C108.69 49.4231 108.273 40.1249 103.486 33.676Z" fill="#15ADA5"/>
<path d="M102.941 32.9132C96.9476 24.8616 86.4496 24.3209 79.5552 31.7567C72.8284 39.0235 72.1372 51.2574 78.0076 59.1363C82.3488 64.9592 89.0606 66.8331 95.0578 64.6054C95.0295 63.0388 94.382 60.8726 93.9813 59.6816C93.7037 58.6632 93.4601 57.6477 93.2318 56.6537C94.8858 55.8759 96.2637 53.6329 96.3674 51.488L96.3739 51.4073C94.8042 51.9889 93.4554 53.8686 93.074 55.8484C92.8126 54.6282 92.6006 53.4324 92.4379 52.261C94.1194 51.5667 95.5928 49.4129 95.7646 47.2736L95.771 47.1929C94.2264 47.675 92.8007 49.4468 92.3206 51.3778C92.1733 50.228 92.06 49.0809 91.9961 47.9583C93.6379 47.1186 94.9543 44.7893 94.9747 42.6172L94.9812 42.5364C93.5628 43.1508 92.3662 44.8399 91.9484 46.6339C91.9395 46.5316 91.946 46.4508 91.9371 46.3485C91.921 45.6971 91.9202 45.0673 91.9194 44.4374C93.0958 42.3607 93.1817 39.1579 92.0517 37.0332L91.9902 36.9468C90.6503 38.9288 90.468 42.2659 91.5543 44.5089C91.5397 45.1171 91.5591 45.7282 91.5785 46.3393C91.0961 44.6742 89.9296 43.2169 88.5802 42.7603L88.5737 42.841C88.6213 45.0187 89.9642 47.2626 91.6529 47.9706C91.7046 49.0313 91.8244 50.0976 91.9409 51.2043C91.1679 49.5356 89.574 48.2868 88.0561 48.2226L88.0836 48.3061C88.5676 50.3776 90.3453 52.1088 92.1068 52.3353C92.2727 53.4663 92.4726 54.6002 92.7065 55.7368C91.8501 54.0409 90.1542 52.7837 88.5805 52.7758L88.608 52.8594C89.2093 54.9608 91.1262 56.6629 92.9315 56.7711C93.0926 57.5361 93.303 58.3254 93.4981 59.0932C93.3961 59.0848 93.3094 59.0979 93.2196 59.1515C92.8974 59.3281 92.4019 59.531 91.8263 59.6664C91.4272 59.735 91.0403 59.8657 90.6654 60.0582C89.222 60.7721 88.9282 59.9556 87.4063 59.3019C87.3075 59.2531 86.4235 59.1802 86.2535 59.1662C86.2195 59.1634 85.7678 59.248 85.3388 59.0501C84.9623 58.8362 84.6385 58.6064 84.4046 58.323C84.0751 57.9505 83.7262 57.8201 83.2648 58.0258C81.1122 59.0469 80.0421 55.7489 79.8673 55.3688C79.7232 55.0318 79.0537 54.6313 78.7332 54.361C78.7024 54.3179 78.653 54.2935 78.6069 54.2287C78.0184 53.6723 77.8638 52.8266 77.8995 52.3826C77.9351 51.9386 78.3472 50.8553 78.3424 50.4892C78.3375 50.1231 78.2647 49.7514 78.2752 49.4069C78.2801 48.9197 78.4761 47.7576 78.923 46.4536C79.1918 45.6632 78.7159 44.7707 78.7329 44.3455C78.7572 43.6161 79.2413 43.1278 79.3369 42.3637C79.3847 41.9817 79.5838 41.6324 79.5976 41.2475C79.728 39.4096 80.5684 37.8943 81.4825 36.5273C82.1196 35.625 83.1267 35.0173 84.0164 34.3796C84.1435 34.2885 84.286 34.219 84.4131 34.1279C86.2095 32.4273 88.6212 30.7369 89.9999 30.8302C90.8499 30.9003 91.5072 31.239 91.9112 31.5364C92.3645 31.8582 92.8397 32.1208 93.3399 32.284L94.436 32.6994C95.1338 32.9601 95.7037 33.5353 96.0348 34.3143C96.2218 34.7563 96.4614 35.1824 96.6929 35.2828C97.0726 35.4563 97.9039 35.5451 98.3953 35.606C98.6333 35.6256 98.8746 35.6049 99.1004 35.5626C99.6388 35.4647 100.697 35.2879 100.728 35.3311C100.774 35.3958 100.999 35.5769 100.932 36.2011C100.849 36.8038 100.61 37.8608 100.61 37.8608C100.61 37.8608 100.801 38.0391 100.999 38.1366C101.196 38.2342 101.586 38.2866 101.699 38.5804C101.812 38.8741 101.522 39.5003 101.837 39.6279C102.134 39.7742 102.493 39.5601 102.588 39.8726C102.682 40.1851 102.546 41.0272 102.707 41.1623C102.867 41.2974 104.371 42.5997 103.823 43.6719C103.399 44.4699 101.872 46.2333 101.158 47.0276C100.857 47.3685 100.712 47.8848 100.776 48.3776C100.848 48.7493 100.967 49.1857 101.231 49.7357C101.913 51.0514 102.818 54.7016 102.818 54.7016C102.818 54.7016 102.827 54.8039 102.866 54.9494C102.942 55.2807 103.107 55.7819 103.234 55.9142C103.329 56.0033 103.579 56.0849 103.901 56.1317C104.17 56.1945 104.439 56.0339 104.582 55.741C108.146 48.6603 107.744 39.3836 102.941 32.9132Z" fill="url(#paint17_linear_204_24)"/>
<path d="M250.121 173.879C261.652 124.107 230.651 74.4101 180.879 62.879C131.107 51.3478 81.4101 82.3485 69.879 132.121C58.3478 181.893 89.3485 231.59 139.121 243.121C188.893 254.652 238.59 223.651 250.121 173.879Z" fill="url(#paint18_linear_204_24)"/>
<path d="M252.601 147.873C252.601 196.158 211.147 235.303 160.093 235.303C108.946 235.395 67.4928 196.158 67.4928 147.873C67.4928 133.378 71.1857 119.715 77.833 107.713C93.1586 79.6464 124.271 60.4432 160 60.4432C198.315 60.4432 231.182 82.4161 245.215 113.806C250.015 124.331 252.601 135.779 252.601 147.873Z" fill="url(#paint19_linear_204_24)"/>
<path d="M237.09 147.873C237.09 149.073 237.09 150.274 236.998 151.474V151.658C234.967 190.157 201.269 220.716 160.093 220.716C118.824 220.716 85.2186 190.157 83.1875 151.658V151.474C83.0952 150.274 83.0952 149.073 83.0952 147.873C83.0952 107.713 117.532 75.0303 160.093 75.0303C202.561 75.1226 237.09 107.713 237.09 147.873Z" fill="url(#paint20_linear_204_24)"/>
<path opacity="0.5" fill-rule="evenodd" clip-rule="evenodd" d="M245.307 113.806C231.089 135.779 199.699 151.012 163.324 151.012C123.625 151.012 90.0195 132.917 77.9252 107.713C93.1585 79.6464 124.271 60.4432 160 60.4432C198.314 60.4432 231.181 82.4161 245.307 113.806Z" fill="url(#paint21_linear_204_24)"/>
<path d="M236.905 151.474V151.658C234.874 190.157 201.176 220.716 160 220.716C118.732 220.716 85.1263 190.157 83.0952 151.658V151.474C83.4645 145.288 84.5724 139.379 86.4188 133.655C96.1128 104.02 125.379 82.4161 160 82.4161C196.56 82.4161 227.212 106.512 235.059 138.826C236.075 142.888 236.721 147.135 236.905 151.474Z" fill="#557086"/>
<path opacity="0.2" fill-rule="evenodd" clip-rule="evenodd" d="M235.059 138.826C218.626 154.151 192.59 164.03 163.232 164.03C130.734 164.03 102.299 151.935 86.4189 133.655C96.1129 104.02 125.379 82.4161 160 82.4161C196.56 82.4161 227.212 106.512 235.059 138.826Z" fill="url(#paint22_linear_204_24)"/>
<path d="M222.965 148.519C222.226 113.437 193.052 85.7398 157.877 86.94C123.533 88.1402 96.3898 116.853 97.1284 151.197C97.6823 176.586 113.193 198.097 135.073 207.606C138.212 203.636 140.797 196.62 142.09 192.65C143.382 189.419 144.767 186.28 146.152 183.233C152.522 185.449 161.108 183.325 165.817 178.247L166.001 178.063C160.277 175.57 152.522 176.863 147.352 180.832C149.106 177.14 150.953 173.631 152.891 170.308C159.169 172.8 167.848 171.139 172.741 166.245L172.926 166.061C167.479 163.383 159.723 164.214 154.369 167.815C156.307 164.584 158.339 161.445 160.462 158.49C166.925 160.521 175.511 158.029 180.034 152.674L180.219 152.489C174.864 150.458 167.94 151.658 163.047 155.074C163.232 154.797 163.416 154.613 163.601 154.336C164.893 152.674 166.186 151.104 167.479 149.535C175.141 147.319 181.973 139.564 183.081 131.44V131.07C175.141 132.64 167.756 140.487 166.278 148.796C164.986 150.274 163.786 151.843 162.585 153.413C164.617 148.058 164.247 141.503 161.293 136.979L161.108 137.164C156.769 142.703 156.03 151.658 159.446 157.659C157.415 160.429 155.569 163.383 153.63 166.43C154.83 160.337 152.799 153.228 148.552 149.258L148.46 149.535C145.598 155.905 147.167 164.676 151.784 169.661C149.937 172.893 148.183 176.216 146.521 179.632C147.537 173.262 145.229 165.876 140.705 161.906L140.613 162.183C138.027 168.923 140.059 177.97 145.044 182.771C143.936 185.079 142.921 187.572 141.905 189.972C141.628 189.696 141.351 189.511 140.982 189.419C139.689 189.049 137.843 188.311 135.904 187.203C134.612 186.372 133.227 185.726 131.75 185.264C126.118 183.418 126.949 180.648 123.902 175.201C123.717 174.832 121.317 172.431 120.855 171.969C120.763 171.877 119.286 170.954 118.455 169.384C117.809 167.907 117.347 166.522 117.255 165.23C117.07 163.476 116.332 162.276 114.577 161.629C106.268 158.767 109.961 147.873 110.238 146.488C110.515 145.288 109.407 142.611 109.038 141.134C109.038 140.949 108.946 140.764 108.946 140.487C108.392 137.625 109.684 135.133 110.7 134.117C111.715 133.101 115.131 131.44 115.87 130.516C116.609 129.593 117.162 128.485 117.901 127.654C118.917 126.454 121.871 124.054 125.841 121.93C128.241 120.638 128.703 117.222 129.626 116.206C131.196 114.452 133.596 114.452 135.442 112.79C136.366 111.959 137.658 111.59 138.489 110.667C142.644 106.42 148.183 104.758 153.63 103.65C157.323 103.004 161.478 104.02 165.355 104.666C165.909 104.758 166.463 104.943 167.017 105.035C175.695 105.312 186.128 107.159 189.913 110.852C192.221 113.16 193.421 115.652 193.975 117.407C194.622 119.345 195.452 121.192 196.56 122.854L198.868 126.639C200.346 129.039 200.807 131.901 200.161 134.671C199.792 136.24 199.607 137.902 200.069 138.733C200.807 140.118 203.023 142.426 204.315 143.811C204.962 144.457 205.7 145.011 206.439 145.473C208.193 146.581 211.609 148.796 211.609 148.981C211.609 149.258 211.886 150.274 210.409 151.658C208.932 152.951 206.07 154.982 206.07 154.982C206.07 154.982 206.254 155.905 206.624 156.644C206.993 157.382 208.008 158.49 207.731 159.506C207.454 160.521 205.331 161.352 205.977 162.46C206.531 163.568 208.008 163.937 207.639 164.953C207.27 165.968 205.146 167.723 205.331 168.461C205.516 169.2 207.177 176.216 203.392 177.509C200.53 178.432 192.498 178.986 188.805 179.171C187.236 179.263 185.759 180.186 184.928 181.571C184.374 182.679 183.82 184.064 183.45 186.095C182.712 191.08 177.819 202.436 177.819 202.436C177.819 202.436 177.634 202.713 177.449 203.175C176.988 204.19 176.434 205.852 176.526 206.498C176.619 206.96 177.172 207.791 178.003 208.714C178.65 209.545 179.758 209.822 180.773 209.453C205.608 200.774 223.519 176.586 222.965 148.519Z" fill="#15ADA5"/>
<path d="M222.965 145.288C222.226 110.205 193.052 82.5084 157.877 83.7086C123.533 84.9088 96.3898 113.621 97.1284 147.965C97.6823 173.354 113.193 194.866 135.073 204.375C138.212 200.405 140.797 193.388 142.09 189.419C143.382 186.187 144.767 183.048 146.152 180.002C152.522 182.217 161.108 180.094 165.817 175.016L166.001 174.831C160.277 172.339 152.522 173.631 147.352 177.601C149.106 173.908 150.953 170.4 152.891 167.076C159.169 169.569 167.848 167.907 172.741 163.014L172.926 162.83C167.479 160.152 159.723 160.983 154.369 164.584C156.307 161.352 158.339 158.213 160.462 155.259C166.925 157.29 175.511 154.797 180.034 149.443L180.219 149.258C174.864 147.227 167.94 148.427 163.047 151.843C163.232 151.566 163.416 151.381 163.601 151.104C164.893 149.443 166.186 147.873 167.479 146.304C175.141 144.088 181.973 136.333 183.081 128.208V127.839C175.141 129.409 167.756 137.256 166.278 145.565C164.986 147.042 163.786 148.612 162.585 150.181C164.617 144.827 164.247 138.272 161.293 133.748L161.108 133.932C156.769 139.472 156.03 148.427 159.446 154.428C157.415 157.198 155.569 160.152 153.63 163.199C154.83 157.105 152.799 149.997 148.552 146.027L148.46 146.304C145.598 152.674 147.167 161.445 151.784 166.43C149.937 169.661 148.183 172.985 146.521 176.401C147.537 170.031 145.229 162.645 140.705 158.675L140.613 158.952C138.027 165.692 140.059 174.739 145.044 179.54C143.936 181.848 142.921 184.341 141.905 186.741C141.628 186.464 141.351 186.28 140.982 186.187C139.689 185.818 137.843 185.079 135.904 183.971C134.612 183.141 133.227 182.494 131.75 182.033C126.118 180.186 126.949 177.417 123.902 171.969C123.717 171.6 121.317 169.2 120.855 168.738C120.763 168.646 119.286 167.723 118.455 166.153C117.809 164.676 117.347 163.291 117.255 161.999C117.07 160.244 116.332 159.044 114.577 158.398C106.268 155.536 109.961 144.642 110.238 143.257C110.515 142.057 109.407 139.379 109.038 137.902C109.038 137.718 108.946 137.533 108.946 137.256C108.392 134.394 109.684 131.901 110.7 130.886C111.715 129.87 115.131 128.208 115.87 127.285C116.609 126.362 117.162 125.254 117.901 124.423C118.917 123.223 121.871 120.823 125.841 118.699C128.241 117.407 128.703 113.991 129.626 112.975C131.196 111.221 133.596 111.221 135.442 109.559C136.366 108.728 137.658 108.359 138.489 107.436C142.644 103.189 148.183 101.527 153.63 100.419C157.323 99.7729 161.478 100.788 165.355 101.435C165.909 101.527 166.463 101.712 167.017 101.804C175.695 102.081 186.128 103.927 189.913 107.62C192.221 109.928 193.421 112.421 193.975 114.175C194.622 116.114 195.452 117.96 196.56 119.622L198.868 123.408C200.346 125.808 200.807 128.67 200.161 131.44C199.792 133.009 199.607 134.671 200.069 135.502C200.807 136.887 203.023 139.195 204.315 140.58C204.962 141.226 205.7 141.78 206.439 142.241C208.193 143.349 211.609 145.565 211.609 145.75C211.609 146.027 211.886 147.042 210.409 148.427C208.932 149.72 206.07 151.751 206.07 151.751C206.07 151.751 206.254 152.674 206.624 153.413C206.993 154.151 208.008 155.259 207.731 156.275C207.454 157.29 205.331 158.121 205.977 159.229C206.531 160.337 208.008 160.706 207.639 161.722C207.27 162.737 205.146 164.491 205.331 165.23C205.516 165.968 207.177 172.985 203.392 174.278C200.53 175.201 192.498 175.755 188.805 175.939C187.236 176.032 185.759 176.955 184.928 178.34C184.374 179.448 183.82 180.833 183.45 182.864C182.712 187.849 177.819 199.205 177.819 199.205C177.819 199.205 177.634 199.482 177.449 199.943C176.988 200.959 176.434 202.621 176.526 203.267C176.619 203.729 177.172 204.56 178.003 205.483C178.65 206.314 179.758 206.591 180.773 206.221C205.608 197.543 223.519 173.447 222.965 145.288Z" fill="url(#paint23_linear_204_24)"/>
<g filter="url(#filter0_df_204_24)">
<circle cx="177.5" cy="307.5" r="1.5" fill="#56E2D6"/>
</g>
<path d="M157.808 308C170.028 308 179.057 308.104 190.305 308.298M217.186 308.969C259.878 310.39 289 313.229 289 316.5C289 321.194 229.006 325 155 325C80.9938 325 21 321.194 21 316.5C21 314.203 35.3671 312.118 58.7126 310.589M105.051 308.61C97.3865 308.806 90.0726 309.045 83.1856 309.322" stroke="white" stroke-opacity="0.2" stroke-width="2" stroke-linecap="round"/>
<path d="M104.899 308C97.2487 308.203 89.948 308.451 83.0735 308.739M58.6445 310.052C35.3411 311.639 21 313.801 21 316.184C21 321.053 80.8856 325 154.758 325C166.956 325 178.772 324.892 190 324.691" stroke="#2ADACC" stroke-width="2" stroke-linecap="round"/>
<g filter="url(#filter1_df_204_24)">
<circle cx="259.5" cy="197.5" r="1.5" fill="#56E2D6"/>
</g>
<g filter="url(#filter2_df_204_24)">
<ellipse cx="225" cy="235.5" rx="1" ry="1.5" fill="#56E2D6"/>
</g>
<g filter="url(#filter3_df_204_24)">
<circle cx="57.5" cy="145.5" r="1.5" fill="#56E2D6"/>
</g>
<g filter="url(#filter4_df_204_24)">
<circle cx="71.5" cy="82.5" r="1.5" fill="#56E2D6"/>
</g>
<g filter="url(#filter5_df_204_24)">
<circle cx="242.5" cy="33.5" r="1.5" fill="#56E2D6"/>
</g>
<g opacity="0.26" filter="url(#filter6_df_204_24)">
<ellipse cx="91.5" cy="269" rx="1.5" ry="1" fill="#56E2D6"/>
</g>
<g opacity="0.26" filter="url(#filter7_df_204_24)">
<ellipse cx="195.5" cy="26" rx="1.5" ry="1" fill="#56E2D6"/>
</g>
<defs>
<filter id="filter0_df_204_24" x="170" y="300" width="15" height="15" filterUnits="userSpaceOnUse" color-interpolation-filters="sRGB">
<feFlood flood-opacity="0" result="BackgroundImageFix"/>
<feColorMatrix in="SourceAlpha" type="matrix" values="0 0 0 0 0 0 0 0 0 0 0 0 0 0 0 0 0 0 127 0" result="hardAlpha"/>
<feOffset/>
<feGaussianBlur stdDeviation="3"/>
<feComposite in2="hardAlpha" operator="out"/>
<feColorMatrix type="matrix" values="0 0 0 0 0.164706 0 0 0 0 0.854902 0 0 0 0 0.8 0 0 0 1 0"/>
<feBlend mode="normal" in2="BackgroundImageFix" result="effect1_dropShadow_204_24"/>
<feBlend mode="normal" in="SourceGraphic" in2="effect1_dropShadow_204_24" result="shape"/>
<feGaussianBlur stdDeviation="1" result="effect2_foregroundBlur_204_24"/>
</filter>
<filter id="filter1_df_204_24" x="252" y="190" width="15" height="15" filterUnits="userSpaceOnUse" color-interpolation-filters="sRGB">
<feFlood flood-opacity="0" result="BackgroundImageFix"/>
<feColorMatrix in="SourceAlpha" type="matrix" values="0 0 0 0 0 0 0 0 0 0 0 0 0 0 0 0 0 0 127 0" result="hardAlpha"/>
<feOffset/>
<feGaussianBlur stdDeviation="3"/>
<feComposite in2="hardAlpha" operator="out"/>
<feColorMatrix type="matrix" values="0 0 0 0 0.164706 0 0 0 0 0.854902 0 0 0 0 0.8 0 0 0 1 0"/>
<feBlend mode="normal" in2="BackgroundImageFix" result="effect1_dropShadow_204_24"/>
<feBlend mode="normal" in="SourceGraphic" in2="effect1_dropShadow_204_24" result="shape"/>
<feGaussianBlur stdDeviation="1" result="effect2_foregroundBlur_204_24"/>
</filter>
<filter id="filter2_df_204_24" x="218" y="228" width="14" height="15" filterUnits="userSpaceOnUse" color-interpolation-filters="sRGB">
<feFlood flood-opacity="0" result="BackgroundImageFix"/>
<feColorMatrix in="SourceAlpha" type="matrix" values="0 0 0 0 0 0 0 0 0 0 0 0 0 0 0 0 0 0 127 0" result="hardAlpha"/>
<feOffset/>
<feGaussianBlur stdDeviation="3"/>
<feComposite in2="hardAlpha" operator="out"/>
<feColorMatrix type="matrix" values="0 0 0 0 0.164706 0 0 0 0 0.854902 0 0 0 0 0.8 0 0 0 1 0"/>
<feBlend mode="normal" in2="BackgroundImageFix" result="effect1_dropShadow_204_24"/>
<feBlend mode="normal" in="SourceGraphic" in2="effect1_dropShadow_204_24" result="shape"/>
<feGaussianBlur stdDeviation="1" result="effect2_foregroundBlur_204_24"/>
</filter>
<filter id="filter3_df_204_24" x="50" y="138" width="15" height="15" filterUnits="userSpaceOnUse" color-interpolation-filters="sRGB">
<feFlood flood-opacity="0" result="BackgroundImageFix"/>
<feColorMatrix in="SourceAlpha" type="matrix" values="0 0 0 0 0 0 0 0 0 0 0 0 0 0 0 0 0 0 127 0" result="hardAlpha"/>
<feOffset/>
<feGaussianBlur stdDeviation="3"/>
<feComposite in2="hardAlpha" operator="out"/>
<feColorMatrix type="matrix" values="0 0 0 0 0.164706 0 0 0 0 0.854902 0 0 0 0 0.8 0 0 0 1 0"/>
<feBlend mode="normal" in2="BackgroundImageFix" result="effect1_dropShadow_204_24"/>
<feBlend mode="normal" in="SourceGraphic" in2="effect1_dropShadow_204_24" result="shape"/>
<feGaussianBlur stdDeviation="1" result="effect2_foregroundBlur_204_24"/>
</filter>
<filter id="filter4_df_204_24" x="64" y="75" width="15" height="15" filterUnits="userSpaceOnUse" color-interpolation-filters="sRGB">
<feFlood flood-opacity="0" result="BackgroundImageFix"/>
<feColorMatrix in="SourceAlpha" type="matrix" values="0 0 0 0 0 0 0 0 0 0 0 0 0 0 0 0 0 0 127 0" result="hardAlpha"/>
<feOffset/>
<feGaussianBlur stdDeviation="3"/>
<feComposite in2="hardAlpha" operator="out"/>
<feColorMatrix type="matrix" values="0 0 0 0 0.164706 0 0 0 0 0.854902 0 0 0 0 0.8 0 0 0 1 0"/>
<feBlend mode="normal" in2="BackgroundImageFix" result="effect1_dropShadow_204_24"/>
<feBlend mode="normal" in="SourceGraphic" in2="effect1_dropShadow_204_24" result="shape"/>
<feGaussianBlur stdDeviation="1" result="effect2_foregroundBlur_204_24"/>
</filter>
<filter id="filter5_df_204_24" x="235" y="26" width="15" height="15" filterUnits="userSpaceOnUse" color-interpolation-filters="sRGB">
<feFlood flood-opacity="0" result="BackgroundImageFix"/>
<feColorMatrix in="SourceAlpha" type="matrix" values="0 0 0 0 0 0 0 0 0 0 0 0 0 0 0 0 0 0 127 0" result="hardAlpha"/>
<feOffset/>
<feGaussianBlur stdDeviation="3"/>
<feComposite in2="hardAlpha" operator="out"/>
<feColorMatrix type="matrix" values="0 0 0 0 0.164706 0 0 0 0 0.854902 0 0 0 0 0.8 0 0 0 1 0"/>
<feBlend mode="normal" in2="BackgroundImageFix" result="effect1_dropShadow_204_24"/>
<feBlend mode="normal" in="SourceGraphic" in2="effect1_dropShadow_204_24" result="shape"/>
<feGaussianBlur stdDeviation="1" result="effect2_foregroundBlur_204_24"/>
</filter>
<filter id="filter6_df_204_24" x="84" y="262" width="15" height="14" filterUnits="userSpaceOnUse" color-interpolation-filters="sRGB">
<feFlood flood-opacity="0" result="BackgroundImageFix"/>
<feColorMatrix in="SourceAlpha" type="matrix" values="0 0 0 0 0 0 0 0 0 0 0 0 0 0 0 0 0 0 127 0" result="hardAlpha"/>
<feOffset/>
<feGaussianBlur stdDeviation="3"/>
<feComposite in2="hardAlpha" operator="out"/>
<feColorMatrix type="matrix" values="0 0 0 0 0.164706 0 0 0 0 0.854902 0 0 0 0 0.8 0 0 0 1 0"/>
<feBlend mode="normal" in2="BackgroundImageFix" result="effect1_dropShadow_204_24"/>
<feBlend mode="normal" in="SourceGraphic" in2="effect1_dropShadow_204_24" result="shape"/>
<feGaussianBlur stdDeviation="1" result="effect2_foregroundBlur_204_24"/>
</filter>
<filter id="filter7_df_204_24" x="188" y="19" width="15" height="14" filterUnits="userSpaceOnUse" color-interpolation-filters="sRGB">
<feFlood flood-opacity="0" result="BackgroundImageFix"/>
<feColorMatrix in="SourceAlpha" type="matrix" values="0 0 0 0 0 0 0 0 0 0 0 0 0 0 0 0 0 0 127 0" result="hardAlpha"/>
<feOffset/>
<feGaussianBlur stdDeviation="3"/>
<feComposite in2="hardAlpha" operator="out"/>
<feColorMatrix type="matrix" values="0 0 0 0 0.164706 0 0 0 0 0.854902 0 0 0 0 0.8 0 0 0 1 0"/>
<feBlend mode="normal" in2="BackgroundImageFix" result="effect1_dropShadow_204_24"/>
<feBlend mode="normal" in="SourceGraphic" in2="effect1_dropShadow_204_24" result="shape"/>
<feGaussianBlur stdDeviation="1" result="effect2_foregroundBlur_204_24"/>
</filter>
<linearGradient id="paint0_linear_204_24" x1="124.378" y1="301.869" x2="116.708" y2="295.005" gradientUnits="userSpaceOnUse">
<stop stop-color="#557086"/>
<stop offset="1" stop-color="#425667"/>
</linearGradient>
<linearGradient id="paint1_linear_204_24" x1="102.564" y1="282.458" x2="126.441" y2="297.422" gradientUnits="userSpaceOnUse">
<stop stop-color="#8CA2B5"/>
<stop offset="1" stop-color="#D9D9D9"/>
</linearGradient>
<linearGradient id="paint2_linear_204_24" x1="113.011" y1="276.307" x2="120.767" y2="299.897" gradientUnits="userSpaceOnUse">
<stop stop-color="#425667"/>
<stop offset="1" stop-color="#1A2228"/>
</linearGradient>
<linearGradient id="paint3_linear_204_24" x1="103.144" y1="280.876" x2="126.709" y2="281.855" gradientUnits="userSpaceOnUse">
<stop stop-color="#D9F7F5"/>
<stop offset="1" stop-color="white"/>
</linearGradient>
<linearGradient id="paint4_linear_204_24" x1="105.89" y1="278.871" x2="123.918" y2="286.206" gradientUnits="userSpaceOnUse">
<stop stop-color="#DEFCFF"/>
<stop offset="1" stop-color="white"/>
</linearGradient>
<linearGradient id="paint5_linear_204_24" x1="107.826" y1="280.935" x2="123.641" y2="294.466" gradientUnits="userSpaceOnUse">
<stop stop-color="#2ADACC"/>
<stop offset="1" stop-color="#56E2D6"/>
</linearGradient>
<linearGradient id="paint6_linear_204_24" x1="225.897" y1="292.429" x2="219.247" y2="274.31" gradientUnits="userSpaceOnUse">
<stop stop-color="#557086"/>
<stop offset="1" stop-color="#425667"/>
</linearGradient>
<linearGradient id="paint7_linear_204_24" x1="200.768" y1="244.129" x2="228.608" y2="288.601" gradientUnits="userSpaceOnUse">
<stop stop-color="#8CA2B5"/>
<stop offset="1" stop-color="#D9D9D9"/>
</linearGradient>
<linearGradient id="paint8_linear_204_24" x1="220.314" y1="244.163" x2="211.592" y2="283.548" gradientUnits="userSpaceOnUse">
<stop stop-color="#425667"/>
<stop offset="1" stop-color="#1A2228"/>
</linearGradient>
<linearGradient id="paint9_linear_204_24" x1="202.929" y1="242.557" x2="242.333" y2="257.885" gradientUnits="userSpaceOnUse">
<stop stop-color="#D9F7F5"/>
<stop offset="1" stop-color="white"/>
</linearGradient>
<linearGradient id="paint10_linear_204_24" x1="208.079" y1="241.899" x2="233.574" y2="267.771" gradientUnits="userSpaceOnUse">
<stop stop-color="#DEFCFF"/>
<stop offset="1" stop-color="white"/>
</linearGradient>
<linearGradient id="paint11_linear_204_24" x1="209.759" y1="246.352" x2="223.5" y2="282.205" gradientUnits="userSpaceOnUse">
<stop stop-color="#2ADACC"/>
<stop offset="1" stop-color="#56E2D6"/>
</linearGradient>
<linearGradient id="paint12_linear_204_24" x1="113.919" y1="59.7512" x2="97.3396" y2="54.9568" gradientUnits="userSpaceOnUse">
<stop stop-color="#557086"/>
<stop offset="1" stop-color="#425667"/>
</linearGradient>
<linearGradient id="paint13_linear_204_24" x1="67.3172" y1="46.7118" x2="113.368" y2="51.9911" gradientUnits="userSpaceOnUse">
<stop stop-color="#8CA2B5"/>
<stop offset="1" stop-color="#D9D9D9"/>
</linearGradient>
<linearGradient id="paint14_linear_204_24" x1="78.5642" y1="29.2863" x2="107.827" y2="58.3003" gradientUnits="userSpaceOnUse">
<stop stop-color="#425667"/>
<stop offset="1" stop-color="#1A2228"/>
</linearGradient>
<linearGradient id="paint15_linear_204_24" x1="67.353" y1="44.0747" x2="104.147" y2="28.9265" gradientUnits="userSpaceOnUse">
<stop stop-color="#D9F7F5"/>
<stop offset="1" stop-color="white"/>
</linearGradient>
<linearGradient id="paint16_linear_204_24" x1="69.8299" y1="38.6937" x2="102.23" y2="36.899" gradientUnits="userSpaceOnUse">
<stop stop-color="#DEFCFF"/>
<stop offset="1" stop-color="white"/>
</linearGradient>
<linearGradient id="paint17_linear_204_24" x1="74.0281" y1="40.1983" x2="107.376" y2="48.8053" gradientUnits="userSpaceOnUse">
<stop stop-color="#2ADACC"/>
<stop offset="1" stop-color="#56E2D6"/>
</linearGradient>
<linearGradient id="paint18_linear_204_24" x1="199.23" y1="239.471" x2="165.113" y2="183.736" gradientUnits="userSpaceOnUse">
<stop stop-color="#557086"/>
<stop offset="1" stop-color="#425667"/>
</linearGradient>
<linearGradient id="paint19_linear_204_24" x1="91.8135" y1="90.1686" x2="212.066" y2="220.555" gradientUnits="userSpaceOnUse">
<stop stop-color="#8CA2B5"/>
<stop offset="1" stop-color="#D9D9D9"/>
</linearGradient>
<linearGradient id="paint20_linear_204_24" x1="160.093" y1="75.0303" x2="160.093" y2="220.716" gradientUnits="userSpaceOnUse">
<stop stop-color="#425667"/>
<stop offset="1" stop-color="#1A2228"/>
</linearGradient>
<linearGradient id="paint21_linear_204_24" x1="97.218" y1="84.0884" x2="239.764" y2="119.218" gradientUnits="userSpaceOnUse">
<stop stop-color="#D9F7F5"/>
<stop offset="1" stop-color="white"/>
</linearGradient>
<linearGradient id="paint22_linear_204_24" x1="115.459" y1="76.657" x2="216.119" y2="149.281" gradientUnits="userSpaceOnUse">
<stop stop-color="#DEFCFF"/>
<stop offset="1" stop-color="white"/>
</linearGradient>
<linearGradient id="paint23_linear_204_24" x1="124.579" y1="90.8441" x2="196.528" y2="200.287" gradientUnits="userSpaceOnUse">
<stop stop-color="#2ADACC"/>
<stop offset="1" stop-color="#56E2D6"/>
</linearGradient>
</defs>
</svg>
