<svg width="122" height="122" viewBox="0 0 122 122" fill="none" xmlns="http://www.w3.org/2000/svg">
<circle cx="61" cy="61" r="60" stroke="#2ADACC" stroke-width="2"/>
<path d="M88.4938 38.065C88.4938 38.757 89.0539 39.318 89.7469 39.318C90.439 39.318 91 38.757 91 38.065C91 34.1694 87.8306 31 83.935 31H38.065C34.1694 31 31 34.1694 31 38.065V83.935C31 87.8087 34.1345 90.9606 37.9994 90.9964C38.0055 90.9964 38.0099 90.9999 38.016 90.9999C38.0195 90.9999 38.0221 90.9982 38.0256 90.9982C38.0387 90.9982 38.0518 90.9999 38.0649 90.9999H83.935C83.9482 90.9999 83.9613 90.9982 83.9752 90.9982C83.9787 90.9982 83.9814 90.9999 83.9857 90.9999C83.9918 90.9999 83.9971 90.9964 84.0023 90.9964C87.8663 90.9597 90.9999 87.8078 90.9999 83.935V42.3444C90.9999 41.6523 90.4398 41.0913 89.7469 41.0913H38.6131C37.921 41.0913 37.36 41.6523 37.36 42.3444C37.36 43.0365 37.9201 43.5975 38.6131 43.5975H88.4941V83.9354C88.4941 85.9933 87.1143 87.7173 85.2372 88.2819V55.183C85.2372 52.2033 82.8123 49.7783 79.8326 49.7783L42.1657 49.7775C39.186 49.7775 36.7619 52.2024 36.7619 55.1821V88.2811C34.8849 87.7166 33.5044 85.9926 33.5044 83.9336V38.0658C33.5044 35.5518 35.55 33.5061 38.0641 33.5061H83.9342C86.4482 33.5061 88.493 35.5517 88.493 38.0658L88.4938 38.065ZM39.2682 88.4941V60.9228H82.7313V88.4941H39.2682ZM42.1667 52.2835H79.8337C81.4328 52.2835 82.7331 53.5837 82.7331 55.1829V58.4169H39.2678V55.1829C39.2678 53.5837 40.568 52.2835 42.1663 52.2835H42.1667Z" fill="#2ADACC"/>
<path d="M38.6128 36.0919C37.9207 36.0919 37.3597 36.6529 37.3597 37.345C37.3597 38.0371 37.9198 38.5981 38.6128 38.5981H41.3296C42.0217 38.5981 42.5827 38.0371 42.5827 37.345C42.5827 36.6529 42.0226 36.0919 41.3296 36.0919H38.6128Z" fill="#2ADACC"/>
<path d="M42.0868 56.6948H44.8028C45.4949 56.6948 46.0559 56.1338 46.0559 55.4417C46.0559 54.7496 45.4958 54.1886 44.8028 54.1886H42.0868C41.3947 54.1886 40.8337 54.7496 40.8337 55.4417C40.8337 56.1338 41.3939 56.6948 42.0868 56.6948Z" fill="#2ADACC"/>
<path d="M46.1112 36.0919C45.4192 36.0919 44.8582 36.6529 44.8582 37.345C44.8582 38.0371 45.4183 38.5981 46.1112 38.5981H48.8272C49.5193 38.5981 50.0803 38.0371 50.0803 37.345C50.0803 36.6529 49.5202 36.0919 48.8272 36.0919H46.1112Z" fill="#2ADACC"/>
<path d="M82.5165 36.0919C81.8244 36.0919 81.2634 36.6529 81.2634 37.345C81.2634 38.0371 81.8236 38.5981 82.5165 38.5981H85.2325C85.9246 38.5981 86.4856 38.0371 86.4856 37.345C86.4856 36.6529 85.9254 36.0919 85.2325 36.0919H82.5165Z" fill="#2ADACC"/>
<path d="M56.764 70.2579C56.2746 69.7685 55.482 69.7685 54.9927 70.2579L49.8082 75.4433C49.3188 75.9326 49.3188 76.7252 49.8082 77.2146L54.9533 82.3597C55.198 82.6044 55.5187 82.7267 55.8394 82.7267C56.1601 82.7267 56.4808 82.6044 56.7254 82.3597C57.2148 81.8704 57.2148 81.0778 56.7254 80.5884L52.4655 76.3285L56.7648 72.0292C57.2533 71.5398 57.2533 70.7472 56.7639 70.2579H56.764Z" fill="#2ADACC"/>
<path d="M71.2978 75.4433L66.1133 70.2579C65.624 69.7685 64.8314 69.7685 64.342 70.2579C63.8527 70.7472 63.8527 71.5398 64.342 72.0292L68.6414 76.3285L64.3814 80.5884C63.8921 81.0778 63.8921 81.8704 64.3814 82.3597C64.6261 82.6044 64.9468 82.7267 65.2675 82.7267C65.5882 82.7267 65.9089 82.6044 66.1535 82.3597L71.2987 77.2146C71.7872 76.7252 71.7872 75.9326 71.2978 75.4433H71.2978Z" fill="#2ADACC"/>
</svg>
