<svg width="122" height="122" viewBox="0 0 122 122" fill="none" xmlns="http://www.w3.org/2000/svg">
<circle cx="61" cy="61" r="60" stroke="#2ADACC" stroke-width="2"/>
<path d="M91.9574 67.5804H89.2513C90.506 65.4057 90.9398 62.8529 90.474 60.3855C89.8781 57.2948 87.9148 54.6403 85.1349 53.1645C82.3551 51.6886 79.0564 51.5498 76.1621 52.787C75.6207 48.8791 73.3345 45.4283 69.9476 43.4046C66.5608 41.381 62.4391 41.0035 58.7409 42.3782C57.445 37.7797 54.1151 34.0275 49.7024 32.1944C45.2903 30.3619 40.2818 30.6499 36.109 32.9768C31.9363 35.3036 29.0587 39.4131 28.2985 44.1301C27.5387 48.8472 28.9804 53.6524 32.2115 57.1718H29.5054C27.7803 57.1718 26.1256 57.8572 24.9051 59.0769C23.6853 60.2972 23 61.952 23 63.6772V89.6989C23 90.0439 23.1371 90.375 23.381 90.619C23.625 90.8629 23.9561 91 24.3011 91H97.1619C97.5069 91 97.838 90.8629 98.0819 90.619C98.3259 90.375 98.463 90.0439 98.463 89.6989V74.0859C98.463 72.3607 97.7776 70.706 96.5579 69.4855C95.3375 68.2658 93.6827 67.5805 91.9575 67.5805L91.9574 67.5804ZM81.8479 54.7258C83.3489 55.0389 84.7237 55.787 85.8023 56.8773C86.8804 57.967 87.614 59.35 87.9114 60.8537C88.2239 62.451 88.0293 64.1058 87.3556 65.5876C86.6812 67.0687 85.5608 68.3025 84.151 69.1157V68.8816C84.151 67.1565 83.4656 65.5018 82.2459 64.2813C81.0256 63.0615 79.3708 62.3762 77.6456 62.3762H73.7423C75.2381 60.4304 76.1413 58.0954 76.3445 55.6495C78.0028 54.6743 79.9626 54.3449 81.848 54.726L81.8479 54.7258ZM64.6349 67.5804C67.0025 67.3312 69.2543 66.4309 71.1404 64.9782H77.6458C78.6809 64.9782 79.6741 65.3895 80.4059 66.1213C81.1376 66.8532 81.549 67.8465 81.549 68.8814V88.3977H64.6349L64.6349 67.5804ZM63.4901 44.1609C66.1642 44.2253 68.7136 45.3069 70.6187 47.1847C72.5234 49.0632 73.6408 51.5968 73.7425 54.2704C73.8145 56.8552 72.9218 59.3742 71.2379 61.3368C69.5546 63.2989 67.2005 64.5646 64.6349 64.8869V63.6771C64.6349 61.9519 63.9495 60.2972 62.7298 59.0767C61.5095 57.8569 59.8546 57.1716 58.1295 57.1716H55.4234C57.9948 54.3138 59.4219 50.6075 59.4306 46.7629C59.4288 46.1676 59.394 45.5722 59.3266 44.9804C60.6451 44.4297 62.0613 44.1509 63.4901 44.1608L63.4901 44.1609ZM43.8177 33.7522C47.2685 33.7522 50.5775 35.123 53.0176 37.5631C55.4577 40.0032 56.8285 43.3123 56.8285 46.763C56.8285 50.2138 55.4577 53.5229 53.0176 55.963C50.5775 58.4031 47.2685 59.7739 43.8177 59.7739C40.3669 59.7739 37.0578 58.4031 34.6177 55.963C32.1777 53.5229 30.8068 50.2138 30.8068 46.763C30.8068 43.3123 32.1776 40.0032 34.6177 37.5631C37.0579 35.123 40.3669 33.7522 43.8177 33.7522ZM25.6025 63.6772C25.6025 62.6421 26.0137 61.6488 26.7456 60.9171C27.4774 60.1853 28.4707 59.774 29.5057 59.774H35.2043C37.7595 61.4636 40.7548 62.3645 43.8176 62.3645C46.8804 62.3645 49.8758 61.4637 52.4309 59.774H58.1296C59.1646 59.774 60.1579 60.1852 60.8896 60.9171C61.6214 61.6489 62.0327 62.6422 62.0327 63.6772V88.3978H25.6023L25.6025 63.6772ZM95.8611 88.3978H84.1513V72.0309C85.2393 71.5906 86.2429 70.9656 87.1177 70.1832H91.9579C92.9929 70.1832 93.9862 70.5944 94.7179 71.3263C95.4497 72.0581 95.861 73.0514 95.861 74.0864L95.8611 88.3978Z" fill="#2ADACC"/>
<path d="M46.0418 39.2821C47.7355 39.7863 49.2079 40.851 50.2186 42.3008C50.4637 42.6545 50.868 42.8636 51.2984 42.8601C51.5638 42.8595 51.8223 42.7776 52.0401 42.626C52.6285 42.216 52.7737 41.4068 52.3654 40.8173C51.0138 38.8866 49.0523 37.4664 46.7969 36.7839C46.1069 36.5754 45.3785 36.9657 45.1705 37.6558C44.962 38.3458 45.3523 39.0736 46.0417 39.2822L46.0418 39.2821Z" fill="#2ADACC"/>
<path d="M58.1292 62.3761C57.4107 62.3761 56.8281 62.9587 56.8281 63.6772V68.8815C56.8281 69.6 57.4107 70.1826 58.1292 70.1826C58.8477 70.1826 59.4303 69.6 59.4303 68.8815V63.6772C59.4303 63.3322 59.2932 63.0011 59.0493 62.7571C58.8053 62.5132 58.4742 62.3761 58.1292 62.3761Z" fill="#2ADACC"/>
<path d="M64.3744 49.4693C65.6221 49.7243 66.7332 50.4283 67.497 51.4471C67.7427 51.7747 68.1284 51.9676 68.5379 51.9676C68.8196 51.9676 69.0932 51.8764 69.3186 51.7074C69.8936 51.2764 70.0098 50.4609 69.5788 49.8858C68.4328 48.3571 66.7664 47.3017 64.8949 46.9195C64.5499 46.8504 64.1915 46.9213 63.8987 47.1164C63.606 47.3116 63.4027 47.6154 63.3336 47.9604C63.1901 48.6789 63.6559 49.3776 64.3744 49.5217V49.4693Z" fill="#2ADACC"/>
<path d="M77.6455 67.5803C76.927 67.5803 76.3444 68.1629 76.3444 68.8814V74.0858C76.3444 74.8042 76.927 75.3868 77.6455 75.3868C78.364 75.3868 78.9466 74.8042 78.9466 74.0858V68.8814C78.9466 68.5364 78.8095 68.2053 78.5656 67.9614C78.3216 67.7174 77.9905 67.5803 77.6455 67.5803Z" fill="#2ADACC"/>
<path d="M91.9574 72.7848C91.2389 72.7848 90.6563 73.3674 90.6563 74.0859V79.2902C90.6563 80.0087 91.2389 80.5913 91.9574 80.5913C92.6759 80.5913 93.2585 80.0087 93.2585 79.2902V74.0859C93.2585 73.7409 93.1214 73.4098 92.8775 73.1658C92.6335 72.9219 92.3024 72.7848 91.9574 72.7848Z" fill="#2ADACC"/>
</svg>
