<svg width="32" height="32" viewBox="0 0 32 32" fill="none" xmlns="http://www.w3.org/2000/svg">
<circle cx="16" cy="16" r="15.5" stroke="#2ADACC"/>
<path fill-rule="evenodd" clip-rule="evenodd" d="M10.5833 9.5C9.98505 9.5 9.5 9.98505 9.5 10.5833V21.4167C9.5 22.0149 9.98505 22.5 10.5833 22.5H21.4167C22.0149 22.5 22.5 22.0149 22.5 21.4167V10.5833C22.5 9.98505 22.0149 9.5 21.4167 9.5H10.5833ZM9 10.5833C9 9.70891 9.70891 9 10.5833 9H21.4167C22.2911 9 23 9.70891 23 10.5833V21.4167C23 22.2911 22.2911 23 21.4167 23H10.5833C9.70891 23 9 22.2911 9 21.4167V10.5833Z" fill="#2ADACC"/>
<path fill-rule="evenodd" clip-rule="evenodd" d="M9.1665 11.9167C9.1665 11.7787 9.27843 11.6667 9.4165 11.6667H22.5832C22.7212 11.6667 22.8332 11.7787 22.8332 11.9167C22.8332 12.0548 22.7212 12.1667 22.5832 12.1667H9.4165C9.27843 12.1667 9.1665 12.0548 9.1665 11.9167Z" fill="#2ADACC"/>
<path fill-rule="evenodd" clip-rule="evenodd" d="M10.5 10.5833C10.5 10.4452 10.6119 10.3333 10.75 10.3333H12.75C12.8881 10.3333 13 10.4452 13 10.5833C13 10.7213 12.8881 10.8333 12.75 10.8333H10.75C10.6119 10.8333 10.5 10.7213 10.5 10.5833Z" fill="#2ADACC"/>
<path d="M18.3333 10.5834C18.3333 10.8136 18.1468 11.0001 17.9167 11.0001C17.6865 11.0001 17.5 10.8136 17.5 10.5834C17.5 10.3532 17.6865 10.1667 17.9167 10.1667C18.1468 10.1667 18.3333 10.3532 18.3333 10.5834Z" fill="#2ADACC"/>
<path d="M20 10.5834C20 10.8136 19.8135 11.0001 19.5833 11.0001C19.3531 11.0001 19.1666 10.8136 19.1666 10.5834C19.1666 10.3532 19.3531 10.1667 19.5833 10.1667C19.8135 10.1667 20 10.3532 20 10.5834Z" fill="#2ADACC"/>
<path d="M21.6667 10.5834C21.6667 10.8136 21.4802 11.0001 21.25 11.0001C21.0199 11.0001 20.8334 10.8136 20.8334 10.5834C20.8334 10.3532 21.0199 10.1667 21.25 10.1667C21.4802 10.1667 21.6667 10.3532 21.6667 10.5834Z" fill="#2ADACC"/>
<path fill-rule="evenodd" clip-rule="evenodd" d="M13.9246 15.0724C14.0252 15.1689 14.0252 15.3255 13.9246 15.422L12.4549 16.8333L13.9246 18.2446C14.0252 18.3412 14.0252 18.4977 13.9246 18.5943C13.8241 18.6908 13.6611 18.6908 13.5606 18.5943L11.9088 17.0081C11.8082 16.9116 11.8082 16.7551 11.9088 16.6585L13.5606 15.0724C13.6611 14.9759 13.8241 14.9759 13.9246 15.0724Z" fill="#2ADACC"/>
<path fill-rule="evenodd" clip-rule="evenodd" d="M18.0696 15.0724C18.1624 14.9759 18.3129 14.9759 18.4057 15.0724L19.9304 16.6585C20.0232 16.7551 20.0232 16.9116 19.9304 17.0081L18.4057 18.5943C18.3129 18.6908 18.1624 18.6908 18.0696 18.5943C17.9768 18.4977 17.9768 18.3412 18.0696 18.2446L19.4263 16.8333L18.0696 15.422C17.9768 15.3255 17.9768 15.1689 18.0696 15.0724Z" fill="#2ADACC"/>
<path d="M16.3334 15.1667L15.3334 18.3334L16.3334 15.1667Z" fill="#2ADACC"/>
<path fill-rule="evenodd" clip-rule="evenodd" d="M16.4942 15.0142C16.6285 15.0598 16.6991 15.202 16.6519 15.3318L15.5007 18.5C15.4535 18.6299 15.3065 18.6981 15.1722 18.6525C15.0379 18.6069 14.9673 18.4647 15.0145 18.3349L16.1657 15.1666C16.2129 15.0368 16.36 14.9685 16.4942 15.0142Z" fill="#2ADACC"/>
</svg>
