<svg width="32" height="32" viewBox="0 0 32 32" fill="none" xmlns="http://www.w3.org/2000/svg">
<circle cx="16" cy="16" r="15.5" stroke="#2ADACC"/>
<path d="M14.9773 10C13.7541 10 12.9318 10.9784 12.9318 11.9687V12.4062H7.40906C7.39622 12.4055 7.38352 12.4055 7.37067 12.4062C7.15979 12.4275 6.99898 12.6172 7 12.8438V15.6874C6.99972 15.8632 7.09788 16.0222 7.24927 16.0909L7.81813 16.3437V23.5625C7.81813 23.8041 8.00133 24 8.22719 24H23.7728C23.9987 24 24.1819 23.8041 24.1819 23.5625V16.3437L24.7507 16.0909C24.9021 16.0222 25.0003 15.8632 25 15.6874V12.8438C25 12.6021 24.8169 12.4063 24.5909 12.4062H19.0682V11.9687C19.0682 10.9784 18.2459 10 17.0227 10H14.9773ZM14.9773 10.8749H17.0228C17.8451 10.8749 18.2502 11.5048 18.2502 11.9687V12.4062H13.7501V11.9687C13.7501 11.5048 14.155 10.8749 14.9773 10.8749ZM7.81815 13.2813H24.182V15.3936L17.1441 18.5313H14.8558L7.81786 15.3936L7.81815 13.2813ZM16.0001 15.4688C15.327 15.4688 14.7727 16.0616 14.7727 16.7812C14.7727 17.501 15.327 18.0938 16.0001 18.0938C16.6731 18.0938 17.2274 17.501 17.2274 16.7812C17.2274 16.0616 16.6731 15.4688 16.0001 15.4688ZM16.0001 16.3437C16.2308 16.3437 16.4091 16.5345 16.4091 16.7812C16.4091 17.0281 16.2308 17.2188 16.0001 17.2188C15.7694 17.2188 15.591 17.0281 15.591 16.7812C15.591 16.5345 15.7694 16.3437 16.0001 16.3437ZM8.63634 16.7061L14.6128 19.3722C14.6634 19.3949 14.7178 19.4065 14.7726 19.4064H17.2273C17.2821 19.4065 17.3364 19.3949 17.3871 19.3722L23.3635 16.7061V23.1249H8.63609L8.63634 16.7061Z" fill="#2ADACC"/>
</svg>
