<svg width="32" height="32" viewBox="0 0 32 32" fill="none" xmlns="http://www.w3.org/2000/svg">
<circle cx="16" cy="16" r="16" fill="#56E2D6" fill-opacity="0.2"/>
<path d="M25.0661 11.7041L16.0303 8.0526C15.8566 7.98247 15.6624 7.98247 15.4886 8.0526L6.4528 11.7041C6.17928 11.8147 6.00044 12.0802 6.00073 12.3752C6.00116 12.6702 6.18059 12.9353 6.45438 13.0451L15.4902 16.6708C15.5765 16.7056 15.668 16.7229 15.7594 16.7229C15.8507 16.7229 15.9423 16.7056 16.0286 16.6708L25.0644 13.0451C25.3382 12.9353 25.5178 12.6701 25.518 12.3752C25.5186 12.0802 25.3396 11.8145 25.0661 11.7041H25.0661ZM15.7593 15.2211L8.65856 12.3719L15.7593 9.5025L22.8601 12.3719L15.7593 15.2211Z" fill="#2ADACC"/>
<path d="M24.5538 19.394L15.7592 22.5104L6.96466 19.394C6.58831 19.2606 6.17524 19.4576 6.04184 19.8339C5.90845 20.2103 6.10552 20.6233 6.48172 20.7567L15.5175 23.9586C15.5957 23.9863 15.6773 24.0002 15.7589 24.0002C15.8405 24.0002 15.9223 23.9863 16.0003 23.9586L25.0361 20.7567C25.4124 20.6233 25.6093 20.2103 25.4759 19.8339C25.3428 19.4577 24.9296 19.2606 24.5534 19.394H24.5538Z" fill="#2ADACC"/>
<path d="M24.5556 15.5428L15.7592 18.6348L6.96278 15.5428C6.58613 15.4104 6.1735 15.6085 6.0411 15.9851C5.90869 16.3618 6.10679 16.7744 6.48329 16.9068L15.5191 20.083C15.5967 20.1103 15.6777 20.1239 15.7587 20.1239C15.8398 20.1239 15.921 20.1103 15.9984 20.083L25.0342 16.9068C25.4108 16.7744 25.6089 16.3618 25.4764 15.9851C25.3443 15.6085 24.9318 15.4104 24.555 15.5428H24.5556Z" fill="#2ADACC"/>
</svg>
