<svg width="32" height="32" viewBox="0 0 32 32" fill="none" xmlns="http://www.w3.org/2000/svg">
<circle cx="16" cy="16" r="15.5" stroke="#2ADACC"/>
<path d="M20.0232 7.0004C19.8851 7.00829 19.7589 7.08137 19.6835 7.19738C19.4229 7.5883 19.257 8.02459 19.0721 8.32483C18.8873 8.62508 18.7755 8.74595 18.5218 8.74595C18.1233 8.74595 18.0491 8.62812 17.8967 8.34517C17.7443 8.06221 17.6392 7.61609 17.3601 7.19742C17.279 7.07823 17.1441 7.00696 17.0001 7.00711H14.3913C14.2472 7.00696 14.1124 7.07823 14.0313 7.19742C13.7521 7.61609 13.647 8.06237 13.4946 8.34517C13.3422 8.62813 13.2682 8.74595 12.8696 8.74595C12.6159 8.74595 12.5041 8.62509 12.3192 8.32483C12.1344 8.02458 11.9685 7.5883 11.7078 7.19738C11.6179 7.06318 11.461 6.98993 11.3002 7.00707C11.2353 7.01344 11.1727 7.03437 11.1169 7.06834L8.29075 8.80704V8.80689C8.08634 8.93275 8.0225 9.20025 8.14806 9.40464C8.79146 10.4767 9.17392 11.2525 9.17392 12.2232C9.17392 12.7768 8.68381 13.6927 8.13459 14.7361C7.58521 15.7796 7 16.9815 7 18.3086C7 19.6972 7.41518 20.7864 8.07329 21.6366C8.73141 22.4867 9.6132 23.0975 10.5326 23.6266C12.3711 24.6849 14.367 25.4536 15.3424 26.8188V26.8186C15.4241 26.9325 15.5556 27 15.6957 27C15.8358 27 15.9673 26.9325 16.049 26.8186C17.0244 25.4534 19.0203 24.6847 20.8588 23.6265C21.7781 23.0972 22.66 22.4866 23.3182 21.6365C23.9763 20.7864 24.3914 19.6972 24.3914 18.3086C24.3914 16.9816 23.8063 15.7795 23.2569 14.7361C22.7076 13.6927 22.2175 12.7769 22.2175 12.2231C22.2175 11.2523 22.6 10.4767 23.2434 9.4046C23.3689 9.20019 23.3051 8.93271 23.1007 8.80685L20.2746 7.06815V7.0683C20.1997 7.02038 20.112 6.99672 20.0233 7.00037L20.0232 7.0004ZM14.6633 7.87657H16.7285C16.8471 8.11858 16.9495 8.41306 17.1361 8.75956C17.3642 9.18293 17.8335 9.61527 18.522 9.61527C19.1379 9.61527 19.5695 9.18596 19.8196 8.77987C19.9848 8.51146 20.0886 8.28779 20.2068 8.0532L22.2992 9.33682C21.7573 10.2823 21.3481 11.1642 21.3481 12.2233C21.3481 13.1909 21.9449 14.1157 22.4827 15.1369C23.0202 16.1582 23.522 17.245 23.522 18.3088C23.522 19.5282 23.1764 20.3882 22.6252 21.1001C22.0741 21.8121 21.2983 22.3695 20.4241 22.8728C18.8334 23.7884 16.9303 24.5049 15.6959 25.8883C14.4615 24.5049 12.5584 23.7884 10.9676 22.8728C10.0934 22.3697 9.31758 21.8121 8.76654 21.1001C8.21549 20.3882 7.86972 19.5282 7.86972 18.3088C7.86972 17.2452 8.3715 16.1582 8.90904 15.1369C9.44662 14.1157 10.0436 13.1909 10.0436 12.2233C10.0436 11.1642 9.63435 10.2823 9.09254 9.33682L11.1849 8.0532C11.3031 8.28779 11.4069 8.51147 11.5722 8.77987C11.8222 9.18596 12.2538 9.61527 12.8697 9.61527C13.5582 9.61527 14.0275 9.18293 14.2556 8.75956C14.4422 8.41306 14.5446 8.11857 14.6632 7.87657H14.6633ZM15.696 11.354C12.3395 11.354 9.60906 14.0836 9.60906 17.4394C9.60906 20.7952 12.3395 23.5182 15.696 23.5182C19.0525 23.5182 21.783 20.7953 21.783 17.4394C21.783 14.0836 19.0525 11.354 15.696 11.354ZM15.696 12.2165C18.5826 12.2165 20.9134 14.5534 20.9134 17.4393C20.9134 20.3252 18.5827 22.6556 15.696 22.6556C12.8093 22.6556 10.4786 20.3255 10.4786 17.4393C10.4786 14.5535 12.8093 12.2165 15.696 12.2165ZM15.6689 12.4338H15.6687C15.5097 12.444 15.3688 12.5404 15.3019 12.6851L14.1062 15.2795L11.5315 15.4765V15.4766C11.3627 15.4906 11.2176 15.6011 11.1592 15.76C11.101 15.9188 11.1401 16.0971 11.2598 16.217L13.2639 18.2206L12.6593 21.0391H12.6591C12.6252 21.207 12.6929 21.3792 12.8323 21.4788C12.9717 21.5786 13.1565 21.5871 13.3045 21.5008L15.6959 20.1085L18.0873 21.5008C18.2353 21.5873 18.4201 21.5786 18.5595 21.4788C18.6988 21.3792 18.7666 21.207 18.7327 21.0389L18.1281 18.2204L20.1322 16.2168H20.132C20.2516 16.097 20.2908 15.9188 20.2325 15.7599C20.1742 15.6011 20.029 15.4906 19.8603 15.4765L17.2856 15.2795L16.0899 12.6851C16.0147 12.5225 15.8476 12.4229 15.6688 12.4338L15.6689 12.4338ZM15.696 13.9076L16.6063 15.8773H16.6062C16.672 16.02 16.8097 16.1159 16.9663 16.1285L18.8548 16.2711L17.3466 17.7788V17.779C17.24 17.8829 17.1939 18.034 17.2244 18.1796L17.6728 20.258L15.9133 19.2323C15.7786 19.1547 15.613 19.1547 15.4784 19.2323L13.7189 20.2578L14.1673 18.1795V18.1796C14.1978 18.0339 14.1517 17.8827 14.0451 17.779L12.5369 16.2712L14.4254 16.1287V16.1285C14.582 16.1159 14.7197 16.0198 14.7855 15.8773L15.6958 13.9076L15.696 13.9076Z" fill="#2ADACC"/>
</svg>
