<svg width="32" height="32" viewBox="0 0 32 32" fill="none" xmlns="http://www.w3.org/2000/svg">
<circle cx="16" cy="16" r="15.5" stroke="#2ADACC"/>
<path fill-rule="evenodd" clip-rule="evenodd" d="M14.5775 9.95768L13.3226 9.61501C12.6935 9.44313 12.046 9.82418 11.8773 10.465L11.4791 11.9782H10.1802C9.52871 11.9782 9 12.5168 9 13.1804V22.7978C9 23.4614 9.52871 24 10.1802 24H16.4745C17.1259 24 17.6547 23.4614 17.6547 22.7978V22.5646L18.0279 21.146L22.8379 13.0155C22.8391 13.0135 22.8407 13.0111 22.8419 13.0091C23.1676 12.4344 22.9737 11.6987 22.41 11.3669L16.959 8.16114C16.3949 7.82933 15.6727 8.02643 15.3469 8.6011L14.5778 9.95799L14.5775 9.95768ZM11.7884 12.7796H11.775H10.1802C9.96295 12.7796 9.78672 12.9591 9.78672 13.1804V22.7978C9.78672 23.0191 9.96295 23.1986 10.1802 23.1986H16.4745C16.6917 23.1986 16.8679 23.0191 16.8679 22.7978V22.5189V22.5052V13.1804C16.8679 12.9591 16.6917 12.7796 16.4745 12.7796H11.7885L11.7884 12.7796ZM13.5295 15.2701C13.4052 15.1936 13.2494 15.1936 13.1252 15.2701L11.1583 16.4723C11.0395 16.5445 10.967 16.675 10.967 16.8158V19.2201C10.967 19.3607 11.0395 19.4914 11.1583 19.5636L13.1252 20.7658C13.2495 20.8423 13.4053 20.8423 13.5295 20.7658L15.4964 19.5636C15.6152 19.4914 15.6877 19.3609 15.6877 19.2201V16.8158C15.6877 16.6751 15.6153 16.5445 15.4964 16.4723L13.5295 15.2701ZM13.3274 16.0808L14.901 17.0425V18.9932L13.3274 19.955L11.7538 18.9932V17.0425L13.3274 16.0808ZM14.6598 10.8097L13.1192 10.3894C12.9096 10.3321 12.6935 10.4591 12.6373 10.6727L12.2939 11.9784H16.4744C17.1258 11.9784 17.6546 12.517 17.6546 13.1806V19.468L19.4771 12.54C19.5333 12.326 19.4086 12.1063 19.1989 12.049L14.6721 10.8136C14.6682 10.8124 14.6638 10.8112 14.6595 10.8099L14.6598 10.8097ZM18.7634 18.3501C20.1891 15.9402 22.1626 12.6041 22.1643 12.6017C22.2677 12.4113 22.2025 12.17 22.0168 12.0607L16.5658 8.8549C16.3777 8.74435 16.137 8.80996 16.0284 9.00155L15.3646 10.1721L19.4028 11.2744C20.0323 11.4459 20.406 12.1059 20.2376 12.7467L18.7634 18.3501Z" fill="#2ADACC"/>
</svg>
