<svg width="32" height="32" viewBox="0 0 32 32" fill="none" xmlns="http://www.w3.org/2000/svg">
<circle cx="16" cy="16" r="15.5" stroke="#2ADACC"/>
<path d="M7.38895 12.5691L8.9362 14.5737C8.97884 14.6339 9.04604 14.6728 9.12 14.6803C9.19396 14.6858 9.26748 14.662 9.32085 14.6119C9.42378 14.5159 9.53347 14.4224 9.64904 14.3327C10.0172 14.0487 10.4184 13.8321 10.8184 13.6916L13.9534 17.7832L10.2958 23.819C10.1835 24.0034 10.1961 24.2353 10.3272 24.4091C10.4464 24.5672 10.5964 24.7018 10.7733 24.809C11.0079 24.9508 11.2678 25.0299 11.5243 25.0374C11.7131 25.0405 11.8908 24.9467 11.9887 24.7858L15.2259 19.4441L16.7278 21.4042L16.637 21.4751C16.3088 21.7311 16.0998 22.0997 16.0488 22.5129C15.9973 22.9261 16.1103 23.3345 16.3663 23.663L17.1402 24.6552L16.9092 24.8353C16.7972 24.9225 16.7775 25.0841 16.8647 25.1962L17.5686 26.099C17.6106 26.1526 17.6721 26.1875 17.7396 26.1959C17.809 26.2034 17.8754 26.1851 17.9294 26.1435L22.327 22.7146C22.3807 22.6726 22.4156 22.6111 22.4239 22.5436C22.4325 22.4758 22.4136 22.4077 22.3716 22.3538L21.6673 21.4505C21.6164 21.3855 21.5408 21.3517 21.4644 21.3517C21.4092 21.3517 21.3537 21.3694 21.3066 21.406L21.0744 21.587L20.3009 20.5948C20.0449 20.2663 19.6762 20.0574 19.2631 20.0062C19.1978 19.9981 19.1332 19.9943 19.0686 19.9943C18.7232 19.9943 18.3897 20.1081 18.1129 20.3239L18.0333 20.3861C17.3832 19.5504 16.744 18.7294 16.1334 17.9459L19.428 12.5082C19.6026 12.5917 19.7961 12.6244 19.9879 12.5784C20.2063 12.5244 20.391 12.3888 20.5081 12.1962L20.5942 12.0543C21.8675 13.0787 23.0194 14.3574 24.0998 15.9736C24.2291 16.1668 24.4602 16.2229 24.6771 16.1157C24.9007 16.0034 25.0717 15.7155 24.9698 15.4288L24.4742 14.0296C23.8822 12.3592 22.9979 10.9862 21.8579 9.92928C21.9337 9.75916 21.9647 9.5739 21.9196 9.39041C21.8656 9.17206 21.73 8.98693 21.5378 8.87092L21.5136 8.85622L21.7422 8.47878C21.8768 8.25602 21.9169 7.99445 21.8548 7.74154C21.7931 7.48937 21.6362 7.27542 21.4134 7.14104C21.2562 7.04576 21.0821 6.99989 20.9103 6.99989C20.5806 6.99989 20.2583 7.16736 20.0751 7.46924L19.8332 7.86858C19.7482 7.84094 19.6616 7.823 19.5747 7.823C19.3214 7.823 19.0784 7.94225 18.915 8.1506C17.9348 7.8077 16.8829 7.63039 15.7663 7.63039C15.2095 7.63039 14.6372 7.67303 14.0513 7.75905L12.5845 7.97431C12.282 8.01769 12.1076 8.30368 12.1132 8.55467C12.1182 8.79243 12.2814 8.97505 12.509 8.99771C14.4602 9.19312 16.132 9.61172 17.623 10.2575L17.5386 10.3969C17.3126 10.7689 17.4202 11.2409 17.7617 11.4984L14.8515 16.3014C13.6348 14.7414 12.6342 13.4601 12.064 12.7304C12.3006 12.3794 12.6109 12.0466 12.9794 11.7627C13.0943 11.6736 13.2122 11.5914 13.3301 11.5167C13.391 11.4777 13.433 11.4157 13.4455 11.3442C13.458 11.2734 13.4405 11.2 13.396 11.1428L11.845 9.12999C11.3086 8.43539 10.7389 8.41657 10.0173 8.39275L7.91296 8.32555C7.88223 8.31923 7.8515 8.31481 7.82136 8.31481C7.77872 8.31481 7.73784 8.32481 7.70285 8.35304C7.6433 8.40201 7.61183 8.44965 7.61183 8.52626L7.13808 10.6149C6.97781 11.3192 6.85239 11.8751 7.38878 12.5696L7.38895 12.5691ZM11.5393 24.5237C11.3711 24.519 11.198 24.4653 11.0392 24.3693C10.9207 24.2974 10.8165 24.2046 10.735 24.0859L14.2889 18.221L14.8901 19.0056L11.5393 24.5237ZM21.4202 21.9693L21.8082 22.4672L17.816 25.5798L17.4282 25.0823L21.4202 21.9693ZM18.4737 23.615L17.9678 22.8757C17.9079 22.7877 17.926 22.667 18.0098 22.6009L18.8519 21.9342C18.9394 21.8652 19.0631 21.8783 19.1342 21.9621L19.7136 22.6481L19.672 22.6806L18.4737 23.615ZM18.146 20.9502C18.1461 20.9502 18.1461 20.9501 18.1463 20.9501C18.1464 20.9499 18.1464 20.9499 18.1464 20.9499L18.1466 20.9498L18.4292 20.7292C18.6491 20.5576 18.9238 20.4827 19.2 20.5162C19.477 20.5504 19.7239 20.6906 19.8955 20.9108L20.669 21.9029L20.1193 22.3315L19.5266 21.6301C19.3841 21.4616 19.1828 21.3747 18.9792 21.3747C18.8229 21.3747 18.6654 21.4259 18.5328 21.531L17.6904 22.198C17.3965 22.4307 17.3318 22.8558 17.5436 23.1658L18.0675 23.9317L17.5456 24.3388L16.7716 23.3465C16.6 23.1265 16.5244 22.8527 16.5585 22.5757C16.5931 22.2987 16.7329 22.0518 16.9532 21.8802L18.146 20.9502ZM21.5987 10.3963C22.6319 11.3854 23.4421 12.6554 23.9898 14.2015L24.4855 15.6007C24.4871 15.6051 24.4852 15.612 24.4811 15.6195C23.3698 13.9686 22.1816 12.6595 20.8635 11.61L21.5987 10.3963ZM20.5145 7.73495C20.6462 7.51851 20.9295 7.45014 21.1472 7.57997C21.3639 7.71172 21.4336 7.99535 21.3022 8.21239L21.0741 8.5888L20.2864 8.11196L20.5145 7.73495ZM19.2913 8.49486C19.3854 8.34047 19.5874 8.29033 19.743 8.38384L21.2714 9.3099C21.3464 9.35562 21.3995 9.42782 21.42 9.51252C21.4411 9.5978 21.4275 9.68631 21.3821 9.7616L20.3274 11.5027C20.3267 11.5037 20.3253 11.5041 20.3246 11.5052C20.3218 11.5087 20.3214 11.5131 20.3189 11.5168L20.0686 11.93C20.0227 12.0047 19.9507 12.058 19.8657 12.0786C19.7813 12.0994 19.6922 12.0855 19.6166 12.0404L18.2402 11.2066C18.2399 11.2064 18.2398 11.2061 18.2395 11.2058C18.2392 11.2057 18.239 11.2058 18.2388 11.2057L18.0889 11.115C17.9339 11.0209 17.8841 10.8175 17.9782 10.6625L18.227 10.252C18.2293 10.2476 18.2333 10.2449 18.2355 10.2402C18.2361 10.239 18.236 10.2376 18.2364 10.2364L19.2913 8.49486ZM12.6438 8.49427C12.6488 8.48794 12.6538 8.48294 12.6582 8.48236L14.125 8.26709C15.757 8.02727 17.269 8.14167 18.63 8.59513L17.8926 9.8123C16.3575 9.13785 14.6407 8.70113 12.6438 8.49425L12.6438 8.49427ZM18.1925 11.7785L18.9799 12.2555L15.7949 17.5117C15.5888 17.2472 15.3866 16.9878 15.1893 16.7348L18.1925 11.7785ZM14.6695 16.9038L14.6695 16.9039C15.5761 18.0668 16.5885 19.3663 17.6276 20.7023L17.1328 21.0881L11.1177 13.238C11.1125 13.2309 11.1078 13.224 11.1019 13.2174L10.7607 12.7722L10.7299 12.2923L11.1874 12.4434C11.2479 12.5209 11.3707 12.6779 11.536 12.8894C11.5379 12.892 11.54 12.8944 11.542 12.8972C12.1154 13.6307 13.2604 15.0967 14.6696 16.9041L14.6695 16.9038ZM7.63844 10.7283L8.06631 8.84166L9.99939 8.90562C10.7466 8.93076 11.0641 8.95958 11.4382 9.44333L12.8216 11.2389C12.769 11.2766 12.7162 11.3155 12.6647 11.3557C12.3014 11.6358 11.9849 11.9596 11.731 12.3044C11.6131 12.1535 11.5442 12.0653 11.5442 12.0653C11.5128 12.0251 11.4702 11.9956 11.4224 11.9793L10.5302 11.6837C10.5039 11.6749 10.4762 11.6705 10.4493 11.6705C10.3935 11.6705 10.3376 11.6893 10.2924 11.7244C10.2247 11.7765 10.1876 11.8587 10.1928 11.9441L10.2523 12.8796C10.2548 12.9316 10.2736 12.9812 10.3049 13.0221L10.4896 13.2631C10.0911 13.4217 9.69737 13.646 9.33436 13.9262C9.28231 13.9669 9.23085 14.0084 9.18056 14.0499L7.79517 12.2554C7.42198 11.7716 7.47404 11.4567 7.63842 10.7283L7.63844 10.7283Z" fill="#2ADACC"/>
</svg>
