<svg width="401" height="335" viewBox="0 0 401 335" fill="none" xmlns="http://www.w3.org/2000/svg">
<g filter="url(#filter0_df_230_24)">
<path d="M203.234 294.27C194.98 294.27 186.676 293.765 178.32 292.754C135.024 287.547 95.8301 269.451 67.9789 241.699C40.0264 213.897 26.8098 179.726 30.7089 145.505C34.1524 115.276 50.9644 86.9182 77.9547 65.5865C112.743 38.1384 160.04 25.6528 207.64 31.3648C229.415 33.9934 250.278 40.2109 269.571 49.8658C288.054 59.1162 304.36 71.0458 317.981 85.3512C331.502 99.5555 341.68 115.327 348.162 132.109C354.846 149.498 357.226 167.089 355.251 184.377C353.58 198.985 348.82 212.937 341.123 225.878C333.679 238.363 323.704 249.585 311.398 259.29C294.84 272.383 274.23 282.341 251.797 288.154C236.099 292.248 219.844 294.27 203.234 294.27ZM185.005 32.5274C145.861 32.5274 108.338 44.8614 79.4739 67.6085C53.0406 88.4852 36.583 116.237 33.1902 145.808C29.3417 179.221 42.3558 212.634 69.7006 239.93C97.1974 267.277 135.835 285.172 178.574 290.277C227.946 296.191 275.799 284.211 309.829 257.37C321.881 247.866 331.704 236.847 338.946 224.664C346.44 212.027 351.099 198.429 352.719 184.175C354.644 167.241 352.314 150.054 345.782 133.069C339.452 116.59 329.476 101.122 316.158 87.1204C302.739 73.0172 286.687 61.2393 268.457 52.1405C249.366 42.6372 228.807 36.4703 207.336 33.8923C199.842 32.9824 192.398 32.5274 185.005 32.5274Z" fill="#2ADACC"/>
</g>
<path d="M203.234 294.27C194.98 294.27 186.676 293.765 178.32 292.754C135.024 287.547 95.8301 269.451 67.9789 241.699C40.0264 213.897 26.8098 179.726 30.7089 145.505C34.1524 115.276 50.9644 86.9182 77.9547 65.5865C112.743 38.1384 160.04 25.6528 207.64 31.3648C229.415 33.9934 250.278 40.2109 269.571 49.8658C288.054 59.1162 304.36 71.0458 317.981 85.3512C331.502 99.5555 341.68 115.327 348.162 132.109C354.846 149.498 357.226 167.089 355.251 184.377C353.58 198.985 348.82 212.937 341.123 225.878C333.679 238.363 323.704 249.585 311.398 259.29C294.84 272.383 274.23 282.341 251.797 288.154C236.099 292.248 219.844 294.27 203.234 294.27ZM185.005 32.5274C145.861 32.5274 108.338 44.8614 79.4739 67.6085C53.0406 88.4852 36.583 116.237 33.1902 145.808C29.3417 179.221 42.3558 212.634 69.7006 239.93C97.1974 267.277 135.835 285.172 178.574 290.277C227.946 296.191 275.799 284.211 309.829 257.37C321.881 247.866 331.704 236.847 338.946 224.664C346.44 212.027 351.099 198.429 352.719 184.175C354.644 167.241 352.314 150.054 345.782 133.069C339.452 116.59 329.476 101.122 316.158 87.1204C302.739 73.0172 286.687 61.2393 268.457 52.1405C249.366 42.6372 228.807 36.4703 207.336 33.8923C199.842 32.9824 192.398 32.5274 185.005 32.5274Z" fill="url(#paint0_linear_230_24)"/>
<g filter="url(#filter1_df_230_24)">
<path d="M203.234 294.27C194.98 294.27 186.676 293.765 178.32 292.754C135.024 287.547 95.8301 269.451 67.9789 241.699C40.0264 213.897 26.8098 179.726 30.7089 145.505C34.1524 115.276 50.9644 86.9182 77.9547 65.5865C112.743 38.1384 160.04 25.6528 207.64 31.3648C229.415 33.9934 250.278 40.2109 269.571 49.8658C288.054 59.1162 304.36 71.0458 317.981 85.3512C331.502 99.5555 341.68 115.327 348.162 132.109C354.846 149.498 357.226 167.089 355.251 184.377C353.58 198.985 348.82 212.937 341.123 225.878C333.679 238.363 323.704 249.585 311.398 259.29C294.84 272.383 274.23 282.341 251.797 288.154C236.099 292.248 219.844 294.27 203.234 294.27ZM185.005 32.5274C145.861 32.5274 108.338 44.8614 79.4739 67.6085C53.0406 88.4852 36.583 116.237 33.1902 145.808C29.3417 179.221 42.3558 212.634 69.7006 239.93C97.1974 267.277 135.835 285.172 178.574 290.277C227.946 296.191 275.799 284.211 309.829 257.37C321.881 247.866 331.704 236.847 338.946 224.664C346.44 212.027 351.099 198.429 352.719 184.175C354.644 167.241 352.314 150.054 345.782 133.069C339.452 116.59 329.476 101.122 316.158 87.1204C302.739 73.0172 286.687 61.2393 268.457 52.1405C249.366 42.6372 228.807 36.4703 207.336 33.8923C199.842 32.9824 192.398 32.5274 185.005 32.5274Z" fill="#2ADACC"/>
</g>
<path d="M203.234 294.27C194.98 294.27 186.676 293.765 178.32 292.754C135.024 287.547 95.8301 269.451 67.9789 241.699C40.0264 213.897 26.8098 179.726 30.7089 145.505C34.1524 115.276 50.9644 86.9182 77.9547 65.5865C112.743 38.1384 160.04 25.6528 207.64 31.3648C229.415 33.9934 250.278 40.2109 269.571 49.8658C288.054 59.1162 304.36 71.0458 317.981 85.3512C331.502 99.5555 341.68 115.327 348.162 132.109C354.846 149.498 357.226 167.089 355.251 184.377C353.58 198.985 348.82 212.937 341.123 225.878C333.679 238.363 323.704 249.585 311.398 259.29C294.84 272.383 274.23 282.341 251.797 288.154C236.099 292.248 219.844 294.27 203.234 294.27ZM185.005 32.5274C145.861 32.5274 108.338 44.8614 79.4739 67.6085C53.0406 88.4852 36.583 116.237 33.1902 145.808C29.3417 179.221 42.3558 212.634 69.7006 239.93C97.1974 267.277 135.835 285.172 178.574 290.277C227.946 296.191 275.799 284.211 309.829 257.37C321.881 247.866 331.704 236.847 338.946 224.664C346.44 212.027 351.099 198.429 352.719 184.175C354.644 167.241 352.314 150.054 345.782 133.069C339.452 116.59 329.476 101.122 316.158 87.1204C302.739 73.0172 286.687 61.2393 268.457 52.1405C249.366 42.6372 228.807 36.4703 207.336 33.8923C199.842 32.9824 192.398 32.5274 185.005 32.5274Z" fill="url(#paint1_linear_230_24)"/>
<g filter="url(#filter2_f_230_24)">
<path d="M281.121 194.879C292.652 145.106 261.651 95.4101 211.879 83.8789C162.107 72.3478 112.41 103.348 100.879 153.121C89.3478 202.893 120.349 252.59 170.121 264.121C219.893 275.652 269.59 244.651 281.121 194.879Z" fill="#0C1013"/>
</g>
<g filter="url(#filter3_b_230_24)">
<path d="M211.766 84.3663C261.27 95.8351 292.103 145.263 280.634 194.766C269.165 244.27 219.737 275.103 170.234 263.634C120.73 252.165 89.8973 202.737 101.366 153.234C112.835 103.731 162.263 72.8974 211.766 84.3663Z" stroke="#2ADACC"/>
</g>
<path d="M191.093 255.803H191.092C140.195 255.895 98.9927 216.856 98.9927 168.873C98.9927 154.465 102.663 140.884 109.27 128.955L109.272 128.952C124.508 101.05 155.451 81.9434 191 81.9434C229.123 81.9434 261.808 103.806 275.758 135.01L275.76 135.014C280.531 145.474 283.1 156.852 283.1 168.873C283.1 216.856 241.898 255.803 191.093 255.803Z" stroke="#2ADACC"/>
<path d="M267.499 172.435L267.498 172.455V172.474V172.645C265.475 210.849 232.022 241.216 191.093 241.216C150.071 241.216 116.71 210.849 114.688 172.645V172.474V172.455L114.686 172.435C114.595 171.258 114.595 170.077 114.595 168.873C114.595 129.014 148.782 96.5305 191.092 96.5303C233.313 96.6223 267.59 129.016 267.59 168.873C267.59 170.077 267.59 171.258 267.499 172.435Z" stroke="#2ADACC"/>
<path d="M265.573 159.944L265.574 159.947C266.581 163.975 267.222 168.185 267.405 172.484V172.645C265.383 210.849 231.93 241.216 191 241.216C149.979 241.216 116.618 210.849 114.595 172.645V172.489C114.963 166.35 116.063 160.488 117.894 154.81C127.519 125.389 156.587 103.916 191 103.916C227.343 103.916 257.783 127.867 265.573 159.944Z" stroke="#2ADACC"/>
<path d="M208.819 220.205C209.278 220.403 209.278 220.403 209.278 220.403L209.278 220.402L209.279 220.4L209.282 220.394L209.292 220.369L209.334 220.272C209.37 220.187 209.423 220.062 209.491 219.902C209.627 219.58 209.821 219.116 210.057 218.543C210.529 217.398 211.165 215.818 211.825 214.081C213.136 210.631 214.563 206.501 214.944 203.945C215.301 201.982 215.834 200.648 216.366 199.581C217.118 198.34 218.443 197.521 219.833 197.439C221.684 197.346 224.623 197.161 227.459 196.883C230.277 196.607 233.055 196.234 234.546 195.754L234.546 195.754L234.554 195.751C235.661 195.373 236.359 194.573 236.776 193.624C237.187 192.687 237.332 191.592 237.35 190.555C237.385 188.509 236.925 186.547 236.82 186.126C236.822 186.118 236.825 186.099 236.835 186.07C236.859 186.001 236.906 185.905 236.985 185.779C237.143 185.528 237.382 185.232 237.66 184.902C237.725 184.824 237.792 184.745 237.861 184.664C238.074 184.413 238.297 184.151 238.491 183.902C238.742 183.58 238.987 183.226 239.109 182.893C239.248 182.509 239.216 182.155 239.062 181.84C238.923 181.554 238.693 181.325 238.491 181.14C238.398 181.056 238.308 180.977 238.221 180.901C237.886 180.608 237.601 180.359 237.424 180.005L237.417 179.991L237.409 179.977C237.339 179.857 237.341 179.77 237.396 179.648C237.466 179.491 237.619 179.307 237.857 179.075C237.934 179.001 238.027 178.914 238.125 178.822C238.289 178.67 238.468 178.503 238.611 178.355C238.85 178.105 239.11 177.787 239.214 177.406C239.405 176.703 239.138 176.023 238.861 175.504C238.719 175.238 238.557 174.985 238.416 174.765L238.413 174.759C238.265 174.529 238.149 174.345 238.071 174.189C237.906 173.859 237.777 173.477 237.689 173.167C237.668 173.093 237.649 173.024 237.633 172.962C237.692 172.92 237.759 172.872 237.833 172.818C238.125 172.607 238.531 172.311 238.984 171.975C239.884 171.305 240.983 170.464 241.738 169.803L241.744 169.798L241.751 169.792C242.548 169.045 242.906 168.363 243.048 167.794C243.118 167.512 243.133 167.271 243.129 167.081C243.127 166.987 243.121 166.907 243.116 166.847L243.114 166.821C243.113 166.802 243.111 166.788 243.11 166.774C243.109 166.758 243.109 166.751 243.109 166.75C243.109 166.75 243.109 166.75 243.109 166.75C243.109 166.587 243.031 166.473 243.014 166.448L243.013 166.447C242.984 166.404 242.953 166.37 242.932 166.347C242.886 166.299 242.832 166.251 242.778 166.207C242.668 166.115 242.517 166.002 242.34 165.874C241.985 165.618 241.497 165.285 240.959 164.926C239.881 164.207 238.585 163.374 237.706 162.819L237.704 162.818C236.992 162.372 236.287 161.843 235.675 161.232C235.563 161.113 235.445 160.987 235.323 160.856C234.73 160.223 234.022 159.467 233.361 158.712C232.551 157.787 231.849 156.902 231.51 156.267L231.51 156.267L231.506 156.259C231.345 155.971 231.269 155.466 231.303 154.772C231.335 154.098 231.467 153.322 231.648 152.554L231.648 152.553C232.324 149.657 231.841 146.66 230.295 144.147C230.295 144.146 230.294 144.146 230.294 144.146L227.987 140.362L227.982 140.353L227.976 140.345C226.9 138.73 226.087 136.928 225.451 135.021C224.876 133.203 223.638 130.639 221.267 128.267L221.262 128.263C219.263 126.313 215.589 124.904 211.412 123.944C207.219 122.98 202.422 122.446 198.067 122.305C197.823 122.263 197.576 122.201 197.307 122.134L197.298 122.132C197.027 122.064 196.734 121.991 196.437 121.942C195.799 121.835 195.146 121.717 194.485 121.598C193.166 121.36 191.816 121.116 190.487 120.946C188.481 120.69 186.462 120.591 184.544 120.927L184.544 120.926L184.53 120.929C179.066 122.041 173.397 123.726 169.132 128.086L169.124 128.094L169.117 128.101C168.761 128.497 168.295 128.786 167.751 129.099C167.699 129.129 167.645 129.159 167.591 129.19C167.107 129.466 166.567 129.774 166.108 130.188C165.298 130.916 164.371 131.301 163.379 131.712C163.332 131.732 163.286 131.751 163.238 131.771C162.216 132.196 161.124 132.67 160.255 133.64C159.962 133.963 159.732 134.44 159.524 134.916C159.441 135.108 159.36 135.301 159.278 135.497C159.141 135.827 158.999 136.166 158.834 136.523C158.313 137.644 157.655 138.693 156.604 139.259C152.61 141.395 149.598 143.828 148.523 145.096C148.128 145.542 147.787 146.054 147.466 146.547C147.438 146.591 147.409 146.635 147.381 146.678C147.084 147.135 146.799 147.573 146.479 147.973C146.347 148.139 146.052 148.379 145.611 148.682C145.183 148.975 144.666 149.295 144.127 149.625C144.079 149.654 144.031 149.684 143.982 149.714C143.494 150.012 142.996 150.317 142.557 150.607C142.08 150.921 141.639 151.239 141.346 151.532C140.237 152.641 138.878 155.276 139.446 158.307C139.451 158.479 139.481 158.62 139.504 158.722C139.532 158.852 139.538 158.879 139.538 158.902V158.964L139.553 159.024C139.65 159.41 139.793 159.87 139.944 160.345C139.962 160.404 139.981 160.463 140 160.522C140.136 160.948 140.275 161.388 140.4 161.822C140.542 162.316 140.66 162.787 140.726 163.201C140.793 163.624 140.798 163.94 140.751 164.145L140.749 164.152L140.748 164.159C140.727 164.261 140.682 164.434 140.622 164.666C140.317 165.834 139.619 168.509 139.688 171.286C139.73 172.963 140.048 174.725 140.92 176.266C141.798 177.818 143.221 179.114 145.409 179.869C146.207 180.164 146.739 180.57 147.097 181.073C147.458 181.58 147.67 182.225 147.757 183.043C147.856 184.418 148.345 185.863 148.997 187.354L149.004 187.371L149.013 187.387C149.465 188.241 150.087 188.909 150.597 189.37C150.853 189.602 151.085 189.785 151.257 189.915C151.343 189.98 151.415 190.032 151.465 190.069C151.489 190.087 151.506 190.099 151.518 190.108C151.764 190.354 152.461 191.051 153.123 191.736C153.462 192.087 153.79 192.432 154.043 192.71C154.17 192.85 154.275 192.969 154.352 193.062C154.411 193.134 154.44 193.174 154.451 193.189C154.456 193.196 154.457 193.198 154.455 193.193L154.46 193.204L154.466 193.214C155.213 194.551 155.724 195.724 156.16 196.772C156.226 196.931 156.29 197.087 156.354 197.241C156.707 198.097 157.032 198.886 157.418 199.591C157.88 200.437 158.439 201.184 159.265 201.839C160.086 202.491 161.148 203.034 162.594 203.508L162.6 203.51C164.035 203.958 165.379 204.586 166.634 205.392L166.645 205.399L166.656 205.406C168.627 206.532 170.51 207.287 171.844 207.668L171.852 207.67L171.86 207.672C172.119 207.737 172.32 207.863 172.551 208.095L173.076 208.62L173.365 207.936C173.555 207.487 173.745 207.036 173.935 206.584C174.764 204.61 175.599 202.623 176.495 200.756L176.651 200.431L176.391 200.18C173.983 197.861 172.269 194.494 171.478 190.867C170.721 187.397 170.817 183.728 171.923 180.559C175.939 184.503 177.978 191.361 177.027 197.322L177.971 197.62C179.628 194.214 181.377 190.9 183.218 187.678L183.4 187.36L183.15 187.09C178.765 182.355 177.206 174.063 179.74 167.916C183.486 171.838 185.259 178.419 184.139 184.102L185.052 184.467C185.246 184.162 185.44 183.857 185.633 183.554C187.364 180.828 189.033 178.201 190.85 175.724L191.041 175.463L190.881 175.181C187.641 169.489 188.255 161.006 192.23 155.599C194.755 159.939 195.016 165.999 193.118 171.004L193.983 171.485C195.184 169.913 196.375 168.357 197.655 166.894L197.746 166.79L197.771 166.653C198.49 162.608 200.652 158.655 203.619 155.518C206.422 152.555 209.917 150.348 213.537 149.471C212.319 157.277 205.71 164.692 198.34 166.823L198.191 166.866L198.093 166.986L198.092 166.987C196.8 168.555 195.503 170.13 194.206 171.798L194.195 171.812L194.185 171.827C194.106 171.945 194.027 172.045 193.934 172.162C193.842 172.276 193.737 172.407 193.631 172.566L194.333 173.253C198.898 170.067 205.263 168.869 210.338 170.481C205.866 175.435 197.732 177.706 191.612 175.782L191.267 175.674L191.056 175.967C188.923 178.935 186.884 182.086 184.94 185.326L185.648 185.999C190.663 182.626 197.832 181.759 203.056 183.981C198.253 188.482 190.033 189.977 184.076 187.612L183.676 187.453L183.46 187.825C181.513 191.161 179.66 194.682 177.9 198.387L178.657 198.998C183.499 195.28 190.661 193.984 196.124 196.017C191.486 200.704 183.353 202.629 177.316 200.529L176.885 200.38L176.697 200.795C175.31 203.844 173.922 206.991 172.625 210.233L172.619 210.248L172.614 210.264C171.353 214.139 168.887 220.821 165.916 224.76C144.395 215.248 129.175 194.003 128.628 168.955L208.819 220.205ZM208.819 220.205L209.278 220.403L209.26 220.444L209.235 220.481L209.235 220.481L209.235 220.481L209.235 220.482L209.235 220.482L209.235 220.482M208.819 220.205L209.235 220.482M209.235 220.482L209.235 220.482L209.232 220.487C209.228 220.492 209.222 220.502 209.214 220.515C209.201 220.536 209.184 220.566 209.163 220.604C209.156 220.615 209.149 220.627 209.142 220.64C209.081 220.753 208.998 220.919 208.914 221.129L208.909 221.14L208.905 221.15C208.683 221.637 208.437 222.285 208.259 222.886C208.17 223.186 208.101 223.467 208.059 223.705C208.018 223.94 208.01 224.098 208.019 224.183C208.05 224.316 208.165 224.566 208.404 224.924C208.641 225.28 208.971 225.7 209.375 226.148L209.387 226.162L209.398 226.176C209.899 226.82 210.771 227.054 211.602 226.752L211.608 226.749C236.245 218.14 254.014 194.234 253.465 166.298C252.732 131.494 223.79 104.018 188.894 105.208C154.823 106.399 127.896 134.884 128.628 168.955L209.235 220.482Z" stroke="#2ADACC"/>
<g filter="url(#filter4_df_230_24)">
<path d="M74.3594 297C66.2066 297 59.0159 296.141 52.8886 294.371C43.8243 291.692 37.4945 287.143 34.0511 280.723C25.7464 265.255 35.5196 240.992 61.5478 212.431C87.2722 184.175 125.96 154.907 170.37 129.986C242.176 89.6984 314.032 69.5799 349.276 79.7908C358.34 82.4193 364.67 87.0193 368.114 93.3884C376.418 108.856 366.645 133.12 340.617 161.68C314.892 189.937 276.205 219.205 231.795 244.126C172.497 277.438 113.098 297 74.3594 297ZM327.957 79.7402C313.272 79.7402 295.194 82.571 275.04 88.1819C242.783 97.1291 207.032 112.344 171.636 132.21C127.429 156.979 88.9939 186.095 63.4214 214.15C51.0656 227.748 42.3558 240.334 37.6464 251.556C32.8357 262.93 32.38 272.383 36.2792 279.561C39.3681 285.323 45.1916 289.519 53.5976 291.945C70.0044 296.697 96.1339 294.624 127.125 286.031C159.381 277.084 195.132 261.868 230.529 242.003C274.736 217.234 313.171 188.117 338.743 160.063C351.099 146.465 359.809 133.878 364.518 122.656C369.329 111.283 369.785 101.83 365.885 94.6522C362.797 88.8896 356.973 84.694 348.567 82.2677C342.845 80.549 335.908 79.7402 327.957 79.7402Z" fill="#2ADACC"/>
</g>
<path d="M74.3594 297C66.2066 297 59.0159 296.141 52.8886 294.371C43.8243 291.692 37.4945 287.143 34.0511 280.723C25.7464 265.255 35.5196 240.992 61.5478 212.431C87.2722 184.175 125.96 154.907 170.37 129.986C242.176 89.6984 314.032 69.5799 349.276 79.7908C358.34 82.4193 364.67 87.0193 368.114 93.3884C376.418 108.856 366.645 133.12 340.617 161.68C314.892 189.937 276.205 219.205 231.795 244.126C172.497 277.438 113.098 297 74.3594 297ZM327.957 79.7402C313.272 79.7402 295.194 82.571 275.04 88.1819C242.783 97.1291 207.032 112.344 171.636 132.21C127.429 156.979 88.9939 186.095 63.4214 214.15C51.0656 227.748 42.3558 240.334 37.6464 251.556C32.8357 262.93 32.38 272.383 36.2792 279.561C39.3681 285.323 45.1916 289.519 53.5976 291.945C70.0044 296.697 96.1339 294.624 127.125 286.031C159.381 277.084 195.132 261.868 230.529 242.003C274.736 217.234 313.171 188.117 338.743 160.063C351.099 146.465 359.809 133.878 364.518 122.656C369.329 111.283 369.785 101.83 365.885 94.6522C362.797 88.8896 356.973 84.694 348.567 82.2677C342.845 80.549 335.908 79.7402 327.957 79.7402Z" fill="url(#paint2_linear_230_24)"/>
<defs>
<filter id="filter0_df_230_24" x="0.0391846" y="0.00732422" width="395.885" height="334.263" filterUnits="userSpaceOnUse" color-interpolation-filters="sRGB">
<feFlood flood-opacity="0" result="BackgroundImageFix"/>
<feColorMatrix in="SourceAlpha" type="matrix" values="0 0 0 0 0 0 0 0 0 0 0 0 0 0 0 0 0 0 127 0" result="hardAlpha"/>
<feOffset dx="20" dy="20"/>
<feGaussianBlur stdDeviation="10"/>
<feComposite in2="hardAlpha" operator="out"/>
<feColorMatrix type="matrix" values="0 0 0 0 0.164706 0 0 0 0 0.854902 0 0 0 0 0.8 0 0 0 1 0"/>
<feBlend mode="normal" in2="BackgroundImageFix" result="effect1_dropShadow_230_24"/>
<feBlend mode="normal" in="SourceGraphic" in2="effect1_dropShadow_230_24" result="shape"/>
<feGaussianBlur stdDeviation="15" result="effect2_foregroundBlur_230_24"/>
</filter>
<filter id="filter1_df_230_24" x="0.0391846" y="0.00732422" width="395.885" height="334.263" filterUnits="userSpaceOnUse" color-interpolation-filters="sRGB">
<feFlood flood-opacity="0" result="BackgroundImageFix"/>
<feColorMatrix in="SourceAlpha" type="matrix" values="0 0 0 0 0 0 0 0 0 0 0 0 0 0 0 0 0 0 127 0" result="hardAlpha"/>
<feOffset dx="20" dy="20"/>
<feGaussianBlur stdDeviation="10"/>
<feComposite in2="hardAlpha" operator="out"/>
<feColorMatrix type="matrix" values="0 0 0 0 0.164706 0 0 0 0 0.854902 0 0 0 0 0.8 0 0 0 1 0"/>
<feBlend mode="normal" in2="BackgroundImageFix" result="effect1_dropShadow_230_24"/>
<feBlend mode="normal" in="SourceGraphic" in2="effect1_dropShadow_230_24" result="shape"/>
<feGaussianBlur stdDeviation="15" result="effect2_foregroundBlur_230_24"/>
</filter>
<filter id="filter2_f_230_24" x="58.4714" y="41.4714" width="265.057" height="265.057" filterUnits="userSpaceOnUse" color-interpolation-filters="sRGB">
<feFlood flood-opacity="0" result="BackgroundImageFix"/>
<feBlend mode="normal" in="SourceGraphic" in2="BackgroundImageFix" result="shape"/>
<feGaussianBlur stdDeviation="20" result="effect1_foregroundBlur_230_24"/>
</filter>
<filter id="filter3_b_230_24" x="58.4714" y="41.4717" width="265.057" height="265.057" filterUnits="userSpaceOnUse" color-interpolation-filters="sRGB">
<feFlood flood-opacity="0" result="BackgroundImageFix"/>
<feGaussianBlur in="BackgroundImage" stdDeviation="20"/>
<feComposite in2="SourceAlpha" operator="in" result="effect1_backgroundBlur_230_24"/>
<feBlend mode="normal" in="SourceGraphic" in2="effect1_backgroundBlur_230_24" result="shape"/>
</filter>
<filter id="filter4_df_230_24" x="1.1673" y="47.1619" width="399.83" height="279.838" filterUnits="userSpaceOnUse" color-interpolation-filters="sRGB">
<feFlood flood-opacity="0" result="BackgroundImageFix"/>
<feColorMatrix in="SourceAlpha" type="matrix" values="0 0 0 0 0 0 0 0 0 0 0 0 0 0 0 0 0 0 127 0" result="hardAlpha"/>
<feOffset dy="4"/>
<feGaussianBlur stdDeviation="2"/>
<feComposite in2="hardAlpha" operator="out"/>
<feColorMatrix type="matrix" values="0 0 0 0 0.164706 0 0 0 0 0.854902 0 0 0 0 0.8 0 0 0 1 0"/>
<feBlend mode="normal" in2="BackgroundImageFix" result="effect1_dropShadow_230_24"/>
<feBlend mode="normal" in="SourceGraphic" in2="effect1_dropShadow_230_24" result="shape"/>
<feGaussianBlur stdDeviation="15" result="effect2_foregroundBlur_230_24"/>
</filter>
<linearGradient id="paint0_linear_230_24" x1="103" y1="254" x2="238.36" y2="39.5239" gradientUnits="userSpaceOnUse">
<stop offset="0.0611272" stop-color="#00090F" stop-opacity="0"/>
<stop offset="0.814305" stop-color="#2ADACC"/>
<stop offset="1" stop-color="#C3F7F3"/>
</linearGradient>
<linearGradient id="paint1_linear_230_24" x1="103" y1="254" x2="238.36" y2="39.5239" gradientUnits="userSpaceOnUse">
<stop offset="0.0611272" stop-color="#00090F" stop-opacity="0"/>
<stop offset="0.814305" stop-color="#2ADACC"/>
<stop offset="1" stop-color="#C3F7F3"/>
</linearGradient>
<linearGradient id="paint2_linear_230_24" x1="174.5" y1="159" x2="224.989" y2="250.831" gradientUnits="userSpaceOnUse">
<stop stop-color="#00090F" stop-opacity="0"/>
<stop offset="0.784108" stop-color="#2ADACC"/>
<stop offset="1" stop-color="#DAF8F6"/>
</linearGradient>
</defs>
</svg>
