<svg width="32" height="32" viewBox="0 0 32 32" fill="none" xmlns="http://www.w3.org/2000/svg">
<circle cx="16" cy="16" r="16" fill="#56E2D6" fill-opacity="0.2"/>
<path d="M16.8593 17.283H17.0988C17.1648 17.283 17.2184 17.3369 17.2184 17.4029C17.2184 17.469 17.1648 17.5228 17.0988 17.5228H16.4445C16.2815 17.5228 16.1496 17.6549 16.1496 17.8177C16.1496 17.9807 16.2817 18.1126 16.4445 18.1126H16.684V18.2838C16.684 18.4469 16.8161 18.5787 16.9789 18.5787C17.142 18.5787 17.2738 18.4466 17.2738 18.2838V18.0899C17.5805 18.0114 17.8082 17.7339 17.8082 17.403C17.8082 17.0115 17.4898 16.6928 17.0986 16.6928H16.8591C16.793 16.6928 16.7392 16.639 16.7392 16.5729C16.7392 16.5069 16.793 16.4531 16.8591 16.4531H17.5129C17.6759 16.4531 17.8078 16.321 17.8078 16.1582C17.8078 15.9952 17.6757 15.8633 17.5129 15.8633H17.2734V15.6925C17.2734 15.5295 17.1413 15.3976 16.9785 15.3976C16.8154 15.3976 16.6836 15.5297 16.6836 15.6925V15.8864C16.3769 15.9649 16.1489 16.2429 16.1489 16.5734C16.1491 16.9646 16.4676 17.283 16.8593 17.283L16.8593 17.283Z" fill="#2ADACC"/>
<path d="M16.9789 19.2581C18.2303 19.2581 19.2486 18.2397 19.2486 16.9883C19.2486 15.7367 18.2307 14.7186 16.9789 14.7186C15.7272 14.7186 14.7091 15.7369 14.7091 16.9883C14.7091 18.24 15.7275 19.2581 16.9789 19.2581ZM16.9789 15.3088C17.9052 15.3088 18.6584 16.0623 18.6584 16.9888C18.6584 17.9153 17.9049 18.6683 16.9789 18.6683C16.0526 18.6683 15.2993 17.9149 15.2993 16.9888C15.2991 16.0625 16.0526 15.3088 16.9789 15.3088Z" fill="#2ADACC"/>
<path d="M16.0657 8.6582H16.309C16.3788 8.6582 16.4353 8.71491 16.4353 8.78474C16.4353 8.85458 16.3786 8.91129 16.309 8.91129L15.6442 8.91151C15.4812 8.91151 15.3493 9.04361 15.3493 9.20641C15.3493 9.36943 15.4814 9.50131 15.6442 9.50131H15.8922V9.67989C15.8922 9.84291 16.0243 9.97479 16.1871 9.97479C16.3501 9.97479 16.482 9.84268 16.482 9.67989V9.47929C16.7936 9.40145 17.0249 9.1199 17.0249 8.78499C17.0249 8.39001 16.7035 8.0682 16.3085 8.0682H16.0652C15.9954 8.0682 15.9387 8.01149 15.9387 7.94165C15.9387 7.87182 15.9954 7.81511 16.0652 7.81511H16.7298C16.8928 7.81511 17.0247 7.683 17.0247 7.52021C17.0247 7.35719 16.8926 7.22531 16.7298 7.22531H16.4818V7.04673C16.4818 6.88371 16.3497 6.75183 16.1869 6.75183C16.0239 6.75183 15.892 6.88393 15.892 7.04673V7.24733C15.5804 7.32517 15.3491 7.60672 15.3491 7.94163C15.3489 8.3366 15.6703 8.65819 16.0657 8.65819V8.6582Z" fill="#2ADACC"/>
<path d="M13.8247 8.36273C13.8247 9.66577 14.8849 10.7255 16.1874 10.7255C17.4905 10.7255 18.5502 9.66531 18.5502 8.36273C18.5502 7.05993 17.49 6 16.1874 6C14.8846 5.99978 13.8247 7.0597 13.8247 8.36273ZM16.1874 6.58954C17.1649 6.58954 17.9604 7.38462 17.9604 8.36251C17.9604 9.33994 17.1653 10.1355 16.1874 10.1355C15.21 10.1355 14.4145 9.34039 14.4145 8.36251C14.4147 7.38507 15.21 6.58954 16.1874 6.58954Z" fill="#2ADACC"/>
<path d="M20.3203 13.3917H19.8092V13.0396C20.2204 12.9947 20.5418 12.6453 20.5418 12.2221V11.7913C20.5418 11.3376 20.1728 10.9687 19.7191 10.9687H12.6543C12.2006 10.9687 11.8316 11.3379 11.8316 11.7913V12.2221C11.8316 12.6455 12.153 12.9949 12.5649 13.0396V13.3917H12.0538C10.9214 13.3917 10 14.3131 10 15.4455V23.9462C10 25.0786 10.9214 26 12.0538 26H20.32C21.4524 26 22.3738 25.0786 22.3738 23.9462V15.4455C22.3738 14.313 21.4526 13.3917 20.3202 13.3917H20.3203ZM12.4219 12.2221V11.7913C12.4219 11.6628 12.5262 11.5584 12.6547 11.5584H19.7196C19.8477 11.5584 19.9524 11.6628 19.9524 11.7913V12.2221C19.9524 12.3502 19.8481 12.4545 19.7196 12.4545H12.6547C12.5258 12.4547 12.4217 12.3504 12.4217 12.2221H12.4219ZM19.2192 13.0447V13.3916H13.1552V13.0447H19.2192ZM21.7841 23.9463C21.7841 24.7532 21.1273 25.4101 20.3203 25.4101L12.0541 25.4099C11.2473 25.4099 10.5903 24.7532 10.5903 23.9461V15.4454C10.5903 14.6385 11.247 13.9815 12.0541 13.9815H20.3203C21.1271 13.9815 21.7841 14.6383 21.7841 15.4454V23.9463Z" fill="#2ADACC"/>
<path d="M21.2232 22.1435C21.2232 21.7625 20.9134 21.4525 20.5322 21.4525H20.4234C20.4283 21.4196 20.4317 21.3862 20.4317 21.3518C20.4317 20.9708 20.1219 20.6608 19.7407 20.6608H16.5826C16.2017 20.6608 15.8916 20.9706 15.8916 21.3518C15.8916 21.7327 16.2014 22.0428 16.5826 22.0428H16.6914C16.6865 22.0757 16.6831 22.109 16.6831 22.1435C16.6831 22.1775 16.6867 22.2111 16.6914 22.244H15.9415C15.5605 22.244 15.2505 22.5538 15.2505 22.935C15.2505 22.9742 15.2547 23.0122 15.2607 23.0496C14.946 23.1141 14.7083 23.3929 14.7083 23.7266C14.7083 24.1075 15.018 24.4176 15.3993 24.4176H16.6914C16.6865 24.4505 16.6831 24.4838 16.6831 24.5183C16.6831 24.8993 16.9929 25.2093 17.3741 25.2093H20.5322C20.9131 25.2093 21.2232 24.8995 21.2232 24.5183C21.2232 24.1376 20.9134 23.8278 20.5322 23.8273H19.2401C19.245 23.7944 19.2483 23.761 19.2483 23.7266C19.2483 23.6874 19.2441 23.6494 19.2381 23.612C19.553 23.5475 19.7905 23.2686 19.7905 22.935C19.7905 22.9006 19.7869 22.8674 19.7823 22.8343H20.5324C20.9134 22.8341 21.2232 22.5243 21.2232 22.1435V22.1435ZM16.5831 21.4527C16.5277 21.4527 16.4824 21.4074 16.4824 21.352C16.4824 21.2966 16.5277 21.2513 16.5831 21.2513H19.7412C19.7965 21.2513 19.8419 21.2966 19.8419 21.352C19.8419 21.4074 19.7965 21.4527 19.7412 21.4527H16.5831ZM15.9419 22.8341H17.3712C17.3726 22.8341 17.3735 22.8343 17.3748 22.8343H19.1019C19.1569 22.8352 19.2011 22.8799 19.2011 22.935C19.2011 22.9904 19.1558 23.0358 19.1004 23.0358H18.5593H18.558H15.9412C15.8861 23.0355 15.8412 22.9904 15.8412 22.935C15.8412 22.8794 15.8861 22.8341 15.9419 22.8341L15.9419 22.8341ZM15.3995 23.827C15.3441 23.827 15.2988 23.7817 15.2988 23.7263C15.2988 23.6709 15.3441 23.6255 15.3995 23.6255H15.9406H15.9419H18.5582C18.6136 23.6258 18.6583 23.6709 18.6583 23.7263C18.6583 23.7817 18.6133 23.8268 18.5582 23.827H17.3744H17.373H15.3995ZM20.5324 24.417C20.5878 24.417 20.6331 24.4624 20.6331 24.5178C20.6331 24.5731 20.5878 24.6185 20.5324 24.6185H17.3744C17.319 24.6185 17.2736 24.5731 17.2736 24.5178C17.2736 24.4624 17.3185 24.4173 17.3737 24.417H18.5575H18.5588H20.5324ZM19.1031 22.2442C19.1017 22.2442 19.1009 22.244 19.0995 22.244H17.3724C17.3175 22.2431 17.2732 22.1984 17.2732 22.1435C17.2732 22.0881 17.3186 22.0427 17.3739 22.0427H20.532C20.5874 22.0427 20.6327 22.0881 20.6327 22.1435C20.6327 22.1989 20.5874 22.2442 20.532 22.2442H19.1031Z" fill="#2ADACC"/>
<path d="M11.4437 18.9477L14.326 20.239C14.4156 20.2792 14.5106 20.2995 14.6082 20.2995C14.8802 20.2995 15.1275 20.1391 15.2389 19.8911C15.3946 19.5435 15.2387 19.1343 14.8911 18.9784L12.0088 17.6872C11.9192 17.6469 11.8243 17.6267 11.7266 17.6267C11.4546 17.6267 11.2069 17.7871 11.0959 18.035C11.0203 18.2034 11.0152 18.3911 11.081 18.5632C11.1464 18.736 11.2754 18.8723 11.4437 18.9477L11.4437 18.9477ZM11.6341 18.2763C11.6539 18.2323 11.6959 18.2167 11.7262 18.2167C11.7402 18.2167 11.754 18.2196 11.7671 18.2256L14.6489 19.5169C14.6996 19.5395 14.7223 19.5994 14.6996 19.6498C14.6798 19.6939 14.6378 19.7094 14.6075 19.7094C14.5935 19.7094 14.5797 19.7066 14.5666 19.7006L11.6844 18.4093C11.6512 18.3946 11.6372 18.3679 11.6314 18.3535C11.6265 18.3388 11.6192 18.3094 11.6341 18.2763L11.6341 18.2763Z" fill="#2ADACC"/>
<path d="M15.0254 22.0188C14.904 21.7975 14.6718 21.6605 14.4196 21.6605C14.3042 21.6605 14.1892 21.6901 14.0878 21.7457L11.3192 23.2649C11.1575 23.3539 11.0398 23.5002 10.9885 23.6772C10.9369 23.8545 10.9573 24.0411 11.0461 24.2028C11.1673 24.424 11.3997 24.561 11.6519 24.561C11.7673 24.561 11.8821 24.5315 11.9837 24.4759L14.7523 22.9567C15.0861 22.7734 15.2087 22.3526 15.0254 22.0188V22.0188ZM14.4683 22.4394L11.6997 23.9586C11.6848 23.9668 11.6686 23.971 11.6517 23.971C11.6227 23.971 11.5841 23.9572 11.5629 23.9183C11.5454 23.8865 11.5502 23.8567 11.5547 23.8418C11.5591 23.8269 11.5709 23.7991 11.6027 23.7815L14.3713 22.2623C14.3862 22.2541 14.4025 22.2499 14.4194 22.2499C14.4483 22.2499 14.4865 22.2637 14.5081 22.3021C14.535 22.3513 14.517 22.4129 14.4683 22.4394V22.4394Z" fill="#2ADACC"/>
</svg>
